<svg width="119" height="192" viewBox="0 0 119 192" fill="none" xmlns="http://www.w3.org/2000/svg">
<path d="M74.975 180V172.56H76.775L76.97 173.955C77.15 173.635 77.37 173.36 77.63 173.13C77.9 172.89 78.205 172.705 78.545 172.575C78.895 172.445 79.275 172.38 79.685 172.38V174.525H79.13C78.82 174.525 78.53 174.56 78.26 174.63C78 174.7 77.775 174.815 77.585 174.975C77.395 175.135 77.25 175.355 77.15 175.635C77.05 175.905 77 176.25 77 176.67V180H74.975ZM85.4655 180.18C85.0955 180.18 84.7555 180.135 84.4455 180.045C84.1455 179.955 83.8755 179.825 83.6355 179.655C83.3955 179.475 83.1905 179.265 83.0205 179.025L82.7955 180H80.9955V169.2H83.0205V173.595C83.2505 173.275 83.5605 172.995 83.9505 172.755C84.3405 172.505 84.8455 172.38 85.4655 172.38C86.1655 172.38 86.7855 172.55 87.3255 172.89C87.8755 173.23 88.3105 173.695 88.6305 174.285C88.9505 174.875 89.1105 175.545 89.1105 176.295C89.1105 177.035 88.9505 177.7 88.6305 178.29C88.3105 178.88 87.8755 179.345 87.3255 179.685C86.7855 180.015 86.1655 180.18 85.4655 180.18ZM85.0155 178.41C85.4155 178.41 85.7655 178.32 86.0655 178.14C86.3755 177.96 86.6155 177.71 86.7855 177.39C86.9655 177.07 87.0555 176.7 87.0555 176.28C87.0555 175.87 86.9655 175.505 86.7855 175.185C86.6155 174.855 86.3755 174.6 86.0655 174.42C85.7655 174.24 85.4155 174.15 85.0155 174.15C84.6155 174.15 84.2605 174.245 83.9505 174.435C83.6405 174.615 83.3955 174.865 83.2155 175.185C83.0455 175.495 82.9605 175.86 82.9605 176.28C82.9605 176.69 83.0455 177.06 83.2155 177.39C83.3955 177.71 83.6405 177.96 83.9505 178.14C84.2605 178.32 84.6155 178.41 85.0155 178.41Z" fill="black"/>
<path d="M32.8 180.48C30.72 180.48 28.9333 180.12 27.44 179.4C25.9733 178.653 24.8133 177.653 23.96 176.4C23.1333 175.12 22.6533 173.68 22.52 172.08H27.8C28.0133 173.147 28.5733 174.053 29.48 174.8C30.3867 175.52 31.4933 175.88 32.8 175.88C33.76 175.88 34.6 175.64 35.32 175.16C36.04 174.68 36.6 174.027 37 173.2C37.4267 172.347 37.64 171.413 37.64 170.4C37.64 169.307 37.4267 168.373 37 167.6C36.6 166.8 36.04 166.2 35.32 165.8C34.6 165.373 33.7733 165.16 32.84 165.16C31.72 165.16 30.7333 165.44 29.88 166C29.0267 166.56 28.44 167.267 28.12 168.12H22.92L25.32 152H40.92V156.72H29.32L28.12 162.88C28.7067 162.267 29.4933 161.76 30.48 161.36C31.4667 160.96 32.5733 160.76 33.8 160.76C35.32 160.76 36.64 161.027 37.76 161.56C38.88 162.067 39.8133 162.773 40.56 163.68C41.3333 164.587 41.9067 165.613 42.28 166.76C42.6533 167.907 42.84 169.093 42.84 170.32C42.84 171.813 42.6 173.187 42.12 174.44C41.64 175.667 40.9467 176.733 40.04 177.64C39.16 178.547 38.0933 179.253 36.84 179.76C35.6133 180.24 34.2667 180.48 32.8 180.48ZM59.1238 180.48C56.5104 180.48 54.2704 179.867 52.4038 178.64C50.5638 177.413 49.1371 175.72 48.1238 173.56C47.1371 171.373 46.6438 168.853 46.6438 166C46.6438 163.147 47.1371 160.64 48.1238 158.48C49.1371 156.293 50.5638 154.587 52.4038 153.36C54.2704 152.133 56.5104 151.52 59.1238 151.52C61.7104 151.52 63.9238 152.133 65.7638 153.36C67.6304 154.587 69.0571 156.293 70.0438 158.48C71.0571 160.64 71.5638 163.147 71.5638 166C71.5638 168.853 71.0571 171.373 70.0438 173.56C69.0571 175.72 67.6304 177.413 65.7638 178.64C63.9238 179.867 61.7104 180.48 59.1238 180.48ZM59.0838 175.64C60.4704 175.64 61.6838 175.253 62.7238 174.48C63.7638 173.68 64.5771 172.56 65.1638 171.12C65.7504 169.68 66.0438 167.973 66.0438 166C66.0438 164 65.7504 162.293 65.1638 160.88C64.5771 159.44 63.7638 158.333 62.7238 157.56C61.6838 156.787 60.4704 156.4 59.0838 156.4C57.7238 156.4 56.5104 156.787 55.4438 157.56C54.4038 158.333 53.5904 159.44 53.0038 160.88C52.4171 162.293 52.1238 164 52.1238 166C52.1238 167.973 52.4171 169.68 53.0038 171.12C53.5904 172.56 54.4038 173.68 55.4438 174.48C56.5104 175.253 57.7238 175.64 59.0838 175.64Z" fill="black"/>
<path d="M1.005 166V155.5H4.935C5.775 155.5 6.47 155.645 7.02 155.935C7.58 156.225 7.995 156.615 8.265 157.105C8.535 157.585 8.67 158.12 8.67 158.71C8.67 159.27 8.535 159.795 8.265 160.285C8.005 160.765 7.595 161.155 7.035 161.455C6.485 161.745 5.775 161.89 4.905 161.89H3.03V166H1.005ZM6.45 166L4.29 161.38H6.48L8.76 166H6.45ZM3.03 160.42H4.8C5.42 160.42 5.875 160.27 6.165 159.97C6.455 159.67 6.6 159.275 6.6 158.785C6.6 158.295 6.455 157.91 6.165 157.63C5.875 157.34 5.42 157.195 4.8 157.195H3.03V160.42ZM10.3939 169.3V158.56H12.1939L12.4189 159.595C12.5789 159.375 12.7689 159.175 12.9889 158.995C13.2089 158.805 13.4739 158.655 13.7839 158.545C14.0939 158.435 14.4539 158.38 14.8639 158.38C15.5639 158.38 16.1839 158.55 16.7239 158.89C17.2739 159.23 17.7089 159.695 18.0289 160.285C18.3489 160.875 18.5089 161.545 18.5089 162.295C18.5089 163.035 18.3489 163.7 18.0289 164.29C17.7089 164.88 17.2739 165.345 16.7239 165.685C16.1839 166.015 15.5639 166.18 14.8639 166.18C14.3139 166.18 13.8339 166.08 13.4239 165.88C13.0139 165.67 12.6789 165.385 12.4189 165.025V169.3H10.3939ZM14.4139 164.41C14.8039 164.41 15.1539 164.32 15.4639 164.14C15.7739 163.96 16.0139 163.71 16.1839 163.39C16.3639 163.07 16.4539 162.705 16.4539 162.295C16.4539 161.875 16.3639 161.505 16.1839 161.185C16.0139 160.865 15.7739 160.615 15.4639 160.435C15.1539 160.245 14.8039 160.15 14.4139 160.15C14.0139 160.15 13.6589 160.245 13.3489 160.435C13.0389 160.615 12.7939 160.865 12.6139 161.185C12.4439 161.505 12.3589 161.87 12.3589 162.28C12.3589 162.69 12.4439 163.06 12.6139 163.39C12.7939 163.71 13.0389 163.96 13.3489 164.14C13.6589 164.32 14.0139 164.41 14.4139 164.41Z" fill="black"/>
<path d="M2.01 26V5H10.62C12.08 5 13.31 5.23 14.31 5.69C15.31 6.15 16.06 6.79 16.56 7.61C17.08 8.41 17.34 9.34 17.34 10.4C17.34 11.46 17.11 12.35 16.65 13.07C16.19 13.79 15.58 14.35 14.82 14.75C14.08 15.13 13.27 15.35 12.39 15.41L12.84 15.08C13.8 15.12 14.65 15.38 15.39 15.86C16.15 16.32 16.74 16.94 17.16 17.72C17.6 18.5 17.82 19.35 17.82 20.27C17.82 21.39 17.55 22.38 17.01 23.24C16.49 24.1 15.71 24.78 14.67 25.28C13.65 25.76 12.4 26 10.92 26H2.01ZM6.06 22.7H10.26C11.36 22.7 12.21 22.45 12.81 21.95C13.41 21.45 13.71 20.73 13.71 19.79C13.71 18.85 13.4 18.12 12.78 17.6C12.16 17.06 11.3 16.79 10.2 16.79H6.06V22.7ZM6.06 13.76H9.96C11.02 13.76 11.83 13.52 12.39 13.04C12.95 12.56 13.23 11.88 13.23 11C13.23 10.14 12.95 9.47 12.39 8.99C11.83 8.49 11.01 8.24 9.93 8.24H6.06V13.76ZM28.283 26.36C26.763 26.36 25.413 26.04 24.233 25.4C23.073 24.76 22.163 23.86 21.503 22.7C20.843 21.54 20.513 20.21 20.513 18.71C20.513 17.15 20.833 15.78 21.473 14.6C22.133 13.4 23.043 12.46 24.203 11.78C25.383 11.1 26.753 10.76 28.313 10.76C29.793 10.76 31.093 11.08 32.213 11.72C33.353 12.36 34.233 13.24 34.853 14.36C35.493 15.46 35.813 16.71 35.813 18.11C35.813 18.31 35.813 18.54 35.813 18.8C35.813 19.04 35.793 19.29 35.753 19.55H23.423V17.06H31.703C31.643 16.16 31.293 15.43 30.653 14.87C30.033 14.31 29.253 14.03 28.313 14.03C27.613 14.03 26.973 14.19 26.393 14.51C25.813 14.81 25.353 15.27 25.013 15.89C24.673 16.51 24.503 17.29 24.503 18.23V19.1C24.503 19.9 24.663 20.6 24.983 21.2C25.303 21.8 25.743 22.26 26.303 22.58C26.883 22.9 27.533 23.06 28.253 23.06C28.993 23.06 29.613 22.9 30.113 22.58C30.613 22.24 30.993 21.81 31.253 21.29H35.393C35.093 22.23 34.613 23.09 33.953 23.87C33.293 24.63 32.483 25.24 31.523 25.7C30.563 26.14 29.483 26.36 28.283 26.36ZM39.0398 26V4.4H43.0898V26H39.0398ZM52.1093 26.36C50.8493 26.36 49.7993 26.16 48.9593 25.76C48.1393 25.36 47.5293 24.82 47.1293 24.14C46.7293 23.46 46.5293 22.71 46.5293 21.89C46.5293 20.97 46.7593 20.17 47.2193 19.49C47.6993 18.79 48.4193 18.24 49.3793 17.84C50.3393 17.44 51.5493 17.24 53.0093 17.24H56.7593C56.7593 16.52 56.6493 15.93 56.4293 15.47C56.2293 14.99 55.9093 14.64 55.4693 14.42C55.0493 14.18 54.5093 14.06 53.8493 14.06C53.0693 14.06 52.3993 14.23 51.8393 14.57C51.2993 14.91 50.9593 15.43 50.8193 16.13H46.8893C47.0093 15.03 47.3793 14.08 47.9993 13.28C48.6193 12.48 49.4393 11.86 50.4593 11.42C51.4793 10.98 52.6093 10.76 53.8493 10.76C55.2693 10.76 56.4993 11 57.5393 11.48C58.5793 11.94 59.3793 12.63 59.9393 13.55C60.5193 14.45 60.8093 15.55 60.8093 16.85V26H57.3893L56.9393 23.69C56.7393 24.09 56.4793 24.45 56.1593 24.77C55.8593 25.09 55.5093 25.37 55.1093 25.61C54.7093 25.85 54.2593 26.03 53.7593 26.15C53.2593 26.29 52.7093 26.36 52.1093 26.36ZM53.0693 23.24C53.6093 23.24 54.0793 23.15 54.4793 22.97C54.8993 22.77 55.2493 22.51 55.5293 22.19C55.8293 21.87 56.0593 21.5 56.2193 21.08C56.3993 20.66 56.5193 20.21 56.5793 19.73H53.4593C52.8393 19.73 52.3293 19.81 51.9293 19.97C51.5493 20.11 51.2693 20.32 51.0893 20.6C50.9093 20.86 50.8193 21.17 50.8193 21.53C50.8193 21.89 50.9093 22.2 51.0893 22.46C51.2693 22.72 51.5293 22.92 51.8693 23.06C52.2093 23.18 52.6093 23.24 53.0693 23.24ZM64.4402 26V11.12H68.0102L68.3102 13.61C68.7702 12.75 69.4302 12.06 70.2902 11.54C71.1502 11.02 72.1802 10.76 73.3802 10.76C74.6202 10.76 75.6702 11.03 76.5302 11.57C77.3902 12.09 78.0502 12.86 78.5102 13.88C78.9702 14.9 79.2002 16.16 79.2002 17.66V26H75.1502V18.02C75.1502 16.78 74.9002 15.83 74.4002 15.17C73.9002 14.51 73.1102 14.18 72.0302 14.18C71.3502 14.18 70.7402 14.35 70.2002 14.69C69.6602 15.01 69.2402 15.48 68.9402 16.1C68.6402 16.7 68.4902 17.44 68.4902 18.32V26H64.4402ZM80.018 32.6V29.15H81.248C81.888 29.15 82.338 29.02 82.598 28.76C82.878 28.5 83.018 28.08 83.018 27.5V11.12H87.068V27.47C87.068 28.71 86.848 29.7 86.408 30.44C85.988 31.2 85.388 31.75 84.608 32.09C83.828 32.43 82.908 32.6 81.848 32.6H80.018ZM85.058 8.96C84.318 8.96 83.718 8.75 83.258 8.33C82.798 7.89 82.568 7.34 82.568 6.68C82.568 6.02 82.798 5.48 83.258 5.06C83.718 4.62 84.318 4.4 85.058 4.4C85.798 4.4 86.398 4.62 86.858 5.06C87.318 5.48 87.548 6.02 87.548 6.68C87.548 7.34 87.318 7.89 86.858 8.33C86.398 8.75 85.798 8.96 85.058 8.96ZM96.1718 26.36C94.9118 26.36 93.8618 26.16 93.0218 25.76C92.2018 25.36 91.5918 24.82 91.1918 24.14C90.7918 23.46 90.5918 22.71 90.5918 21.89C90.5918 20.97 90.8218 20.17 91.2818 19.49C91.7618 18.79 92.4818 18.24 93.4418 17.84C94.4018 17.44 95.6118 17.24 97.0718 17.24H100.822C100.822 16.52 100.712 15.93 100.492 15.47C100.292 14.99 99.9718 14.64 99.5318 14.42C99.1118 14.18 98.5718 14.06 97.9118 14.06C97.1318 14.06 96.4618 14.23 95.9018 14.57C95.3618 14.91 95.0218 15.43 94.8818 16.13H90.9518C91.0718 15.03 91.4418 14.08 92.0618 13.28C92.6818 12.48 93.5018 11.86 94.5218 11.42C95.5418 10.98 96.6718 10.76 97.9118 10.76C99.3318 10.76 100.562 11 101.602 11.48C102.642 11.94 103.442 12.63 104.002 13.55C104.582 14.45 104.872 15.55 104.872 16.85V26H101.452L101.002 23.69C100.802 24.09 100.542 24.45 100.222 24.77C99.9218 25.09 99.5718 25.37 99.1718 25.61C98.7718 25.85 98.3218 26.03 97.8218 26.15C97.3218 26.29 96.7718 26.36 96.1718 26.36ZM97.1318 23.24C97.6718 23.24 98.1418 23.15 98.5418 22.97C98.9618 22.77 99.3118 22.51 99.5918 22.19C99.8918 21.87 100.122 21.5 100.282 21.08C100.462 20.66 100.582 20.21 100.642 19.73H97.5218C96.9018 19.73 96.3918 19.81 95.9918 19.97C95.6118 20.11 95.3318 20.32 95.1518 20.6C94.9718 20.86 94.8818 21.17 94.8818 21.53C94.8818 21.89 94.9718 22.2 95.1518 22.46C95.3318 22.72 95.5918 22.92 95.9318 23.06C96.2718 23.18 96.6718 23.24 97.1318 23.24ZM2.01 58V37H6.84L13.38 50.08L19.83 37H24.66V58H20.61V43.87L14.94 55H11.73L6.06 43.84V58H2.01ZM33.7402 58.36C32.4802 58.36 31.4302 58.16 30.5902 57.76C29.7702 57.36 29.1602 56.82 28.7602 56.14C28.3602 55.46 28.1602 54.71 28.1602 53.89C28.1602 52.97 28.3902 52.17 28.8502 51.49C29.3302 50.79 30.0502 50.24 31.0102 49.84C31.9702 49.44 33.1802 49.24 34.6402 49.24H38.3902C38.3902 48.52 38.2802 47.93 38.0602 47.47C37.8602 46.99 37.5402 46.64 37.1002 46.42C36.6802 46.18 36.1402 46.06 35.4802 46.06C34.7002 46.06 34.0302 46.23 33.4702 46.57C32.9302 46.91 32.5902 47.43 32.4502 48.13H28.5202C28.6402 47.03 29.0102 46.08 29.6302 45.28C30.2502 44.48 31.0702 43.86 32.0902 43.42C33.1102 42.98 34.2402 42.76 35.4802 42.76C36.9002 42.76 38.1302 43 39.1702 43.48C40.2102 43.94 41.0102 44.63 41.5702 45.55C42.1502 46.45 42.4402 47.55 42.4402 48.85V58H39.0202L38.5702 55.69C38.3702 56.09 38.1102 56.45 37.7902 56.77C37.4902 57.09 37.1402 57.37 36.7402 57.61C36.3402 57.85 35.8902 58.03 35.3902 58.15C34.8902 58.29 34.3402 58.36 33.7402 58.36ZM34.7002 55.24C35.2402 55.24 35.7102 55.15 36.1102 54.97C36.5302 54.77 36.8802 54.51 37.1602 54.19C37.4602 53.87 37.6902 53.5 37.8502 53.08C38.0302 52.66 38.1502 52.21 38.2102 51.73H35.0902C34.4702 51.73 33.9602 51.81 33.5602 51.97C33.1802 52.11 32.9002 52.32 32.7202 52.6C32.5402 52.86 32.4502 53.17 32.4502 53.53C32.4502 53.89 32.5402 54.2 32.7202 54.46C32.9002 54.72 33.1602 54.92 33.5002 55.06C33.8402 55.18 34.2402 55.24 34.7002 55.24ZM56.0011 58L49.5211 49.81L55.2511 43.12H60.0511L52.6111 51.49V48.28L61.0411 58H56.0011ZM46.0711 58V36.4H50.1211V58H46.0711ZM63.5348 58V43.12H67.5848V58H63.5348ZM65.5448 40.96C64.8248 40.96 64.2248 40.75 63.7448 40.33C63.2848 39.89 63.0548 39.34 63.0548 38.68C63.0548 38.02 63.2848 37.48 63.7448 37.06C64.2248 36.62 64.8248 36.4 65.5448 36.4C66.2848 36.4 66.8848 36.62 67.3448 37.06C67.8248 37.48 68.0648 38.02 68.0648 38.68C68.0648 39.34 67.8248 39.89 67.3448 40.33C66.8848 40.75 66.2848 40.96 65.5448 40.96ZM71.5887 58V43.12H75.1587L75.4587 45.61C75.9187 44.75 76.5787 44.06 77.4387 43.54C78.2987 43.02 79.3287 42.76 80.5287 42.76C81.7687 42.76 82.8187 43.03 83.6787 43.57C84.5387 44.09 85.1987 44.86 85.6587 45.88C86.1187 46.9 86.3487 48.16 86.3487 49.66V58H82.2987V50.02C82.2987 48.78 82.0487 47.83 81.5487 47.17C81.0487 46.51 80.2587 46.18 79.1787 46.18C78.4987 46.18 77.8887 46.35 77.3487 46.69C76.8087 47.01 76.3887 47.48 76.0887 48.1C75.7887 48.7 75.6387 49.44 75.6387 50.32V58H71.5887ZM2.01 90V69H6.84L13.38 82.08L19.83 69H24.66V90H20.61V75.87L14.94 87H11.73L6.06 75.84V90H2.01ZM34.1902 90.36C32.9502 90.36 31.8902 90.1 31.0102 89.58C30.1502 89.06 29.4902 88.29 29.0302 87.27C28.5902 86.23 28.3702 84.96 28.3702 83.46V75.12H32.3902V83.1C32.3902 84.34 32.6402 85.29 33.1402 85.95C33.6402 86.61 34.4302 86.94 35.5102 86.94C36.2102 86.94 36.8302 86.78 37.3702 86.46C37.9102 86.12 38.3302 85.65 38.6302 85.05C38.9302 84.43 39.0802 83.68 39.0802 82.8V75.12H43.1302V90H39.5602L39.2602 87.51C38.7802 88.37 38.1102 89.06 37.2502 89.58C36.3902 90.1 35.3702 90.36 34.1902 90.36ZM47.0379 90V75.12H50.6379L51.0279 77.91C51.3879 77.27 51.8279 76.72 52.3479 76.26C52.8879 75.78 53.4979 75.41 54.1779 75.15C54.8779 74.89 55.6379 74.76 56.4579 74.76V79.05H55.3479C54.7279 79.05 54.1479 79.12 53.6079 79.26C53.0879 79.4 52.6379 79.63 52.2579 79.95C51.8779 80.27 51.5879 80.71 51.3879 81.27C51.1879 81.81 51.0879 82.5 51.0879 83.34V90H47.0379ZM64.2089 90.36C62.9489 90.36 61.8989 90.16 61.0589 89.76C60.2389 89.36 59.6289 88.82 59.2289 88.14C58.8289 87.46 58.6289 86.71 58.6289 85.89C58.6289 84.97 58.8589 84.17 59.3189 83.49C59.7989 82.79 60.5189 82.24 61.4789 81.84C62.4389 81.44 63.6489 81.24 65.1089 81.24H68.8589C68.8589 80.52 68.7489 79.93 68.5289 79.47C68.3289 78.99 68.0089 78.64 67.5689 78.42C67.1489 78.18 66.6089 78.06 65.9489 78.06C65.1689 78.06 64.4989 78.23 63.9389 78.57C63.3989 78.91 63.0589 79.43 62.9189 80.13H58.9889C59.1089 79.03 59.4789 78.08 60.0989 77.28C60.7189 76.48 61.5389 75.86 62.5589 75.42C63.5789 74.98 64.7089 74.76 65.9489 74.76C67.3689 74.76 68.5989 75 69.6389 75.48C70.6789 75.94 71.4789 76.63 72.0389 77.55C72.6189 78.45 72.9089 79.55 72.9089 80.85V90H69.4889L69.0389 87.69C68.8389 88.09 68.5789 88.45 68.2589 88.77C67.9589 89.09 67.6089 89.37 67.2089 89.61C66.8089 89.85 66.3589 90.03 65.8589 90.15C65.3589 90.29 64.8089 90.36 64.2089 90.36ZM65.1689 87.24C65.7089 87.24 66.1789 87.15 66.5789 86.97C66.9989 86.77 67.3489 86.51 67.6289 86.19C67.9289 85.87 68.1589 85.5 68.3189 85.08C68.4989 84.66 68.6189 84.21 68.6789 83.73H65.5589C64.9389 83.73 64.4289 83.81 64.0289 83.97C63.6489 84.11 63.3689 84.32 63.1889 84.6C63.0089 84.86 62.9189 85.17 62.9189 85.53C62.9189 85.89 63.0089 86.2 63.1889 86.46C63.3689 86.72 63.6289 86.92 63.9689 87.06C64.3089 87.18 64.7089 87.24 65.1689 87.24ZM76.5398 90V68.4H80.5898V77.34C81.0698 76.56 81.7298 75.94 82.5698 75.48C83.4098 75 84.3898 74.76 85.5098 74.76C86.7498 74.76 87.7998 75.03 88.6598 75.57C89.5198 76.09 90.1698 76.86 90.6098 77.88C91.0698 78.9 91.2998 80.16 91.2998 81.66V90H87.2798V82.02C87.2798 80.78 87.0298 79.83 86.5298 79.17C86.0498 78.51 85.2598 78.18 84.1598 78.18C83.4798 78.18 82.8698 78.35 82.3298 78.69C81.7898 79.01 81.3598 79.48 81.0398 80.1C80.7398 80.7 80.5898 81.44 80.5898 82.32V90H76.5398Z" fill="black"/>
<path d="M1.34 121V107H6.6C7.73333 107 8.66667 107.193 9.4 107.58C10.1467 107.953 10.7 108.467 11.06 109.12C11.4333 109.773 11.62 110.513 11.62 111.34C11.62 112.1 11.44 112.807 11.08 113.46C10.7333 114.113 10.1867 114.647 9.44 115.06C8.70667 115.46 7.76 115.66 6.6 115.66H4.04V121H1.34ZM4.04 113.48H6.44C7.29333 113.48 7.90667 113.287 8.28 112.9C8.66667 112.513 8.86 111.993 8.86 111.34C8.86 110.66 8.66667 110.133 8.28 109.76C7.90667 109.387 7.29333 109.2 6.44 109.2H4.04V113.48ZM16.2825 121.24C15.4425 121.24 14.7425 121.107 14.1825 120.84C13.6358 120.573 13.2292 120.213 12.9625 119.76C12.6958 119.307 12.5625 118.807 12.5625 118.26C12.5625 117.647 12.7158 117.113 13.0225 116.66C13.3425 116.193 13.8225 115.827 14.4625 115.56C15.1025 115.293 15.9092 115.16 16.8825 115.16H19.3825C19.3825 114.68 19.3092 114.287 19.1625 113.98C19.0292 113.66 18.8158 113.427 18.5225 113.28C18.2425 113.12 17.8825 113.04 17.4425 113.04C16.9225 113.04 16.4758 113.153 16.1025 113.38C15.7425 113.607 15.5158 113.953 15.4225 114.42H12.8025C12.8825 113.687 13.1292 113.053 13.5425 112.52C13.9558 111.987 14.5025 111.573 15.1825 111.28C15.8625 110.987 16.6158 110.84 17.4425 110.84C18.3892 110.84 19.2092 111 19.9025 111.32C20.5958 111.627 21.1292 112.087 21.5025 112.7C21.8892 113.3 22.0825 114.033 22.0825 114.9V121H19.8025L19.5025 119.46C19.3692 119.727 19.1958 119.967 18.9825 120.18C18.7825 120.393 18.5492 120.58 18.2825 120.74C18.0158 120.9 17.7158 121.02 17.3825 121.1C17.0492 121.193 16.6825 121.24 16.2825 121.24ZM16.9225 119.16C17.2825 119.16 17.5958 119.1 17.8625 118.98C18.1425 118.847 18.3758 118.673 18.5625 118.46C18.7625 118.247 18.9158 118 19.0225 117.72C19.1425 117.44 19.2225 117.14 19.2625 116.82H17.1825C16.7692 116.82 16.4292 116.873 16.1625 116.98C15.9092 117.073 15.7225 117.213 15.6025 117.4C15.4825 117.573 15.4225 117.78 15.4225 118.02C15.4225 118.26 15.4825 118.467 15.6025 118.64C15.7225 118.813 15.8958 118.947 16.1225 119.04C16.3492 119.12 16.6158 119.16 16.9225 119.16ZM31.1231 121L26.8031 115.54L30.6231 111.08H33.8231L28.8631 116.66V114.52L34.4831 121H31.1231ZM24.5031 121V106.6H27.2031V121H24.5031ZM39.1145 121.24C38.2745 121.24 37.5745 121.107 37.0145 120.84C36.4679 120.573 36.0612 120.213 35.7945 119.76C35.5279 119.307 35.3945 118.807 35.3945 118.26C35.3945 117.647 35.5479 117.113 35.8545 116.66C36.1745 116.193 36.6545 115.827 37.2945 115.56C37.9345 115.293 38.7412 115.16 39.7145 115.16H42.2145C42.2145 114.68 42.1412 114.287 41.9945 113.98C41.8612 113.66 41.6479 113.427 41.3545 113.28C41.0745 113.12 40.7145 113.04 40.2745 113.04C39.7545 113.04 39.3079 113.153 38.9345 113.38C38.5745 113.607 38.3479 113.953 38.2545 114.42H35.6345C35.7145 113.687 35.9612 113.053 36.3745 112.52C36.7879 111.987 37.3345 111.573 38.0145 111.28C38.6945 110.987 39.4479 110.84 40.2745 110.84C41.2212 110.84 42.0412 111 42.7345 111.32C43.4279 111.627 43.9612 112.087 44.3345 112.7C44.7212 113.3 44.9145 114.033 44.9145 114.9V121H42.6345L42.3345 119.46C42.2012 119.727 42.0279 119.967 41.8145 120.18C41.6145 120.393 41.3812 120.58 41.1145 120.74C40.8479 120.9 40.5479 121.02 40.2145 121.1C39.8812 121.193 39.5145 121.24 39.1145 121.24ZM39.7545 119.16C40.1145 119.16 40.4279 119.1 40.6945 118.98C40.9745 118.847 41.2079 118.673 41.3945 118.46C41.5945 118.247 41.7479 118 41.8545 117.72C41.9745 117.44 42.0545 117.14 42.0945 116.82H40.0145C39.6012 116.82 39.2612 116.873 38.9945 116.98C38.7412 117.073 38.5545 117.213 38.4345 117.4C38.3145 117.573 38.2545 117.78 38.2545 118.02C38.2545 118.26 38.3145 118.467 38.4345 118.64C38.5545 118.813 38.7279 118.947 38.9545 119.04C39.1812 119.12 39.4479 119.16 39.7545 119.16ZM47.4152 121V111.08H50.1152V121H47.4152ZM48.7552 109.64C48.2752 109.64 47.8752 109.5 47.5552 109.22C47.2485 108.927 47.0952 108.56 47.0952 108.12C47.0952 107.68 47.2485 107.32 47.5552 107.04C47.8752 106.747 48.2752 106.6 48.7552 106.6C49.2485 106.6 49.6485 106.747 49.9552 107.04C50.2752 107.32 50.4352 107.68 50.4352 108.12C50.4352 108.56 50.2752 108.927 49.9552 109.22C49.6485 109.5 49.2485 109.64 48.7552 109.64ZM57.5119 121V107H60.2119V112.54L65.2719 107H68.6119L63.4519 112.54L68.7519 121H65.4519L61.5319 114.64L60.2119 116.04V121H57.5119ZM74.0434 121.24C73.2168 121.24 72.5101 121.067 71.9234 120.72C71.3501 120.373 70.9101 119.86 70.6034 119.18C70.3101 118.487 70.1634 117.64 70.1634 116.64V111.08H72.8434V116.4C72.8434 117.227 73.0101 117.86 73.3434 118.3C73.6768 118.74 74.2034 118.96 74.9234 118.96C75.3901 118.96 75.8034 118.853 76.1634 118.64C76.5234 118.413 76.8034 118.1 77.0034 117.7C77.2034 117.287 77.3034 116.787 77.3034 116.2V111.08H80.0034V121H77.6234L77.4234 119.34C77.1034 119.913 76.6568 120.373 76.0834 120.72C75.5101 121.067 74.8301 121.24 74.0434 121.24ZM82.6086 125.4V111.08H85.0086L85.3086 112.46C85.5219 112.167 85.7753 111.9 86.0686 111.66C86.3619 111.407 86.7153 111.207 87.1286 111.06C87.5419 110.913 88.0219 110.84 88.5686 110.84C89.5019 110.84 90.3286 111.067 91.0486 111.52C91.7819 111.973 92.3619 112.593 92.7886 113.38C93.2153 114.167 93.4286 115.06 93.4286 116.06C93.4286 117.047 93.2153 117.933 92.7886 118.72C92.3619 119.507 91.7819 120.127 91.0486 120.58C90.3286 121.02 89.5019 121.24 88.5686 121.24C87.8353 121.24 87.1953 121.107 86.6486 120.84C86.1019 120.56 85.6553 120.18 85.3086 119.7V125.4H82.6086ZM87.9686 118.88C88.4886 118.88 88.9553 118.76 89.3686 118.52C89.7819 118.28 90.1019 117.947 90.3286 117.52C90.5686 117.093 90.6886 116.607 90.6886 116.06C90.6886 115.5 90.5686 115.007 90.3286 114.58C90.1019 114.153 89.7819 113.82 89.3686 113.58C88.9553 113.327 88.4886 113.2 87.9686 113.2C87.4353 113.2 86.9619 113.327 86.5486 113.58C86.1353 113.82 85.8086 114.153 85.5686 114.58C85.3419 115.007 85.2286 115.493 85.2286 116.04C85.2286 116.587 85.3419 117.08 85.5686 117.52C85.8086 117.947 86.1353 118.28 86.5486 118.52C86.9619 118.76 87.4353 118.88 87.9686 118.88ZM100.494 121.24C99.5469 121.24 98.6869 121.02 97.9136 120.58C97.1536 120.14 96.5469 119.527 96.0936 118.74C95.6403 117.953 95.4136 117.053 95.4136 116.04C95.4136 115.013 95.6403 114.113 96.0936 113.34C96.5469 112.553 97.1603 111.94 97.9336 111.5C98.7069 111.06 99.5669 110.84 100.514 110.84C101.474 110.84 102.34 111.06 103.114 111.5C103.887 111.94 104.494 112.553 104.934 113.34C105.387 114.113 105.614 115.013 105.614 116.04C105.614 117.067 105.387 117.973 104.934 118.76C104.48 119.533 103.867 120.14 103.094 120.58C102.334 121.02 101.467 121.24 100.494 121.24ZM100.514 118.9C100.94 118.9 101.327 118.793 101.674 118.58C102.034 118.367 102.32 118.047 102.534 117.62C102.76 117.193 102.874 116.667 102.874 116.04C102.874 115.4 102.767 114.873 102.554 114.46C102.34 114.033 102.054 113.713 101.694 113.5C101.347 113.287 100.96 113.18 100.534 113.18C100.107 113.18 99.7136 113.287 99.3536 113.5C98.9936 113.713 98.7069 114.033 98.4936 114.46C98.2803 114.873 98.1736 115.4 98.1736 116.04C98.1736 116.667 98.2803 117.193 98.4936 117.62C98.7069 118.047 98.9869 118.367 99.3336 118.58C99.6936 118.793 100.087 118.9 100.514 118.9ZM107.902 121V111.08H110.282L110.482 112.74C110.788 112.167 111.228 111.707 111.802 111.36C112.375 111.013 113.062 110.84 113.862 110.84C114.688 110.84 115.388 111.02 115.962 111.38C116.535 111.727 116.975 112.24 117.282 112.92C117.588 113.6 117.742 114.44 117.742 115.44V121H115.042V115.68C115.042 114.853 114.875 114.22 114.542 113.78C114.208 113.34 113.682 113.12 112.962 113.12C112.508 113.12 112.102 113.233 111.742 113.46C111.382 113.673 111.102 113.987 110.902 114.4C110.702 114.8 110.602 115.293 110.602 115.88V121H107.902Z" fill="black"/>
</svg>
