<svg width="350" height="400" viewBox="0 0 350 400" fill="none" xmlns="http://www.w3.org/2000/svg">
<rect x="0.5" y="0.5" width="349" height="399" fill="#EDEDED" stroke="black"/>
<path d="M8.864 20V11.6H10.064L14.348 18.032V11.6H15.548V20H14.348L10.064 13.568V20H8.864ZM19.9781 20.144C19.4181 20.144 18.9101 20.016 18.4541 19.76C18.0061 19.496 17.6501 19.132 17.3861 18.668C17.1221 18.196 16.9901 17.648 16.9901 17.024C16.9901 16.4 17.1221 15.856 17.3861 15.392C17.6581 14.92 18.0221 14.556 18.4781 14.3C18.9341 14.036 19.4421 13.904 20.0021 13.904C20.5701 13.904 21.0781 14.036 21.5261 14.3C21.9821 14.556 22.3421 14.916 22.6061 15.38C22.8701 15.844 23.0021 16.392 23.0021 17.024C23.0021 17.648 22.8661 18.196 22.5941 18.668C22.3301 19.132 21.9701 19.496 21.5141 19.76C21.0581 20.016 20.5461 20.144 19.9781 20.144ZM19.9901 19.112C20.3021 19.112 20.5941 19.036 20.8661 18.884C21.1381 18.724 21.3581 18.488 21.5261 18.176C21.6941 17.864 21.7781 17.48 21.7781 17.024C21.7781 16.56 21.6941 16.176 21.5261 15.872C21.3661 15.56 21.1501 15.328 20.8781 15.176C20.6061 15.016 20.3141 14.936 20.0021 14.936C19.6981 14.936 19.4061 15.016 19.1261 15.176C18.8541 15.328 18.6341 15.56 18.4661 15.872C18.3061 16.176 18.2261 16.56 18.2261 17.024C18.2261 17.48 18.3061 17.864 18.4661 18.176C18.6341 18.488 18.8501 18.724 19.1141 18.884C19.3861 19.036 19.6781 19.112 19.9901 19.112Z" fill="black"/>
<path d="M34.864 20V11.6H37.552C38.528 11.6 39.336 11.772 39.976 12.116C40.616 12.46 41.088 12.948 41.392 13.58C41.704 14.204 41.86 14.948 41.86 15.812C41.86 16.676 41.704 17.42 41.392 18.044C41.088 18.668 40.616 19.152 39.976 19.496C39.336 19.832 38.528 20 37.552 20H34.864ZM36.064 18.992H37.504C38.28 18.992 38.896 18.864 39.352 18.608C39.808 18.352 40.132 17.988 40.324 17.516C40.524 17.036 40.624 16.468 40.624 15.812C40.624 15.148 40.524 14.576 40.324 14.096C40.132 13.616 39.808 13.248 39.352 12.992C38.896 12.736 38.28 12.608 37.504 12.608H36.064V18.992ZM45.9898 20.144C45.4058 20.144 44.8898 20.016 44.4418 19.76C43.9938 19.496 43.6418 19.132 43.3858 18.668C43.1298 18.204 43.0018 17.66 43.0018 17.036C43.0018 16.412 43.1258 15.868 43.3738 15.404C43.6298 14.932 43.9818 14.564 44.4298 14.3C44.8858 14.036 45.4138 13.904 46.0138 13.904C46.5978 13.904 47.1018 14.036 47.5258 14.3C47.9578 14.556 48.2898 14.896 48.5218 15.32C48.7538 15.744 48.8698 16.216 48.8698 16.736C48.8698 16.816 48.8698 16.904 48.8698 17C48.8698 17.096 48.8658 17.196 48.8578 17.3H43.8898V16.46H47.6698C47.6458 15.98 47.4778 15.6 47.1658 15.32C46.8538 15.04 46.4618 14.9 45.9898 14.9C45.6698 14.9 45.3698 14.972 45.0898 15.116C44.8178 15.26 44.5978 15.472 44.4298 15.752C44.2618 16.024 44.1778 16.372 44.1778 16.796V17.132C44.1778 17.572 44.2618 17.94 44.4298 18.236C44.5978 18.532 44.8178 18.76 45.0898 18.92C45.3698 19.072 45.6698 19.148 45.9898 19.148C46.3658 19.148 46.6818 19.06 46.9378 18.884C47.1938 18.708 47.3818 18.476 47.5018 18.188H48.7018C48.5978 18.564 48.4218 18.9 48.1738 19.196C47.9258 19.484 47.6178 19.716 47.2498 19.892C46.8818 20.06 46.4618 20.144 45.9898 20.144ZM52.531 20.144C52.043 20.144 51.603 20.06 51.211 19.892C50.827 19.724 50.519 19.492 50.287 19.196C50.055 18.892 49.915 18.536 49.867 18.128H51.079C51.127 18.32 51.211 18.496 51.331 18.656C51.451 18.808 51.611 18.932 51.811 19.028C52.019 19.124 52.259 19.172 52.531 19.172C52.795 19.172 53.011 19.136 53.179 19.064C53.347 18.984 53.471 18.88 53.551 18.752C53.631 18.624 53.671 18.488 53.671 18.344C53.671 18.128 53.615 17.964 53.503 17.852C53.391 17.74 53.227 17.652 53.011 17.588C52.803 17.524 52.551 17.46 52.255 17.396C52.015 17.34 51.767 17.272 51.511 17.192C51.255 17.112 51.023 17.012 50.815 16.892C50.607 16.764 50.439 16.608 50.311 16.424C50.183 16.232 50.119 15.996 50.119 15.716C50.119 15.372 50.207 15.064 50.383 14.792C50.567 14.512 50.827 14.296 51.163 14.144C51.499 13.984 51.899 13.904 52.363 13.904C53.019 13.904 53.551 14.064 53.959 14.384C54.375 14.696 54.615 15.148 54.679 15.74H53.527C53.487 15.468 53.367 15.256 53.167 15.104C52.967 14.952 52.695 14.876 52.351 14.876C52.015 14.876 51.755 14.944 51.571 15.08C51.395 15.216 51.307 15.396 51.307 15.62C51.307 15.756 51.359 15.88 51.463 15.992C51.575 16.096 51.731 16.184 51.931 16.256C52.139 16.328 52.383 16.396 52.663 16.46C53.055 16.54 53.415 16.64 53.743 16.76C54.079 16.88 54.351 17.052 54.559 17.276C54.775 17.5 54.883 17.828 54.883 18.26C54.891 18.628 54.799 18.956 54.607 19.244C54.415 19.524 54.143 19.744 53.791 19.904C53.439 20.064 53.019 20.144 52.531 20.144ZM60.1005 20L57.3045 16.724L59.8125 14.048H61.2645L58.2765 17.18L58.2885 16.292L61.6125 20H60.1005ZM56.2965 20V11.36H57.4965V20H56.2965ZM62.6246 20V14.048H63.7046L63.8006 15.188C63.9366 14.924 64.1086 14.696 64.3166 14.504C64.5246 14.312 64.7686 14.164 65.0486 14.06C65.3366 13.956 65.6606 13.904 66.0206 13.904V15.164H65.6846C65.4286 15.164 65.1846 15.196 64.9526 15.26C64.7286 15.324 64.5286 15.428 64.3526 15.572C64.1846 15.716 64.0526 15.916 63.9566 16.172C63.8686 16.42 63.8246 16.732 63.8246 17.108V20H62.6246ZM67.2086 20V14.048H68.4086V20H67.2086ZM67.8086 12.872C67.5766 12.872 67.3846 12.8 67.2326 12.656C67.0886 12.512 67.0166 12.328 67.0166 12.104C67.0166 11.888 67.0886 11.712 67.2326 11.576C67.3846 11.432 67.5766 11.36 67.8086 11.36C68.0326 11.36 68.2206 11.432 68.3726 11.576C68.5246 11.712 68.6006 11.888 68.6006 12.104C68.6006 12.328 68.5246 12.512 68.3726 12.656C68.2206 12.8 68.0326 12.872 67.8086 12.872ZM70.1129 22.64V14.048H71.1929L71.3129 14.984C71.4409 14.8 71.6009 14.624 71.7929 14.456C71.9849 14.288 72.2129 14.156 72.4769 14.06C72.7489 13.956 73.0649 13.904 73.4249 13.904C74.0089 13.904 74.5169 14.04 74.9489 14.312C75.3889 14.584 75.7329 14.956 75.9809 15.428C76.2289 15.9 76.3529 16.436 76.3529 17.036C76.3529 17.636 76.2289 18.172 75.9809 18.644C75.7329 19.108 75.3889 19.476 74.9489 19.748C74.5089 20.012 73.9969 20.144 73.4129 20.144C72.9409 20.144 72.5249 20.052 72.1649 19.868C71.8049 19.676 71.5209 19.412 71.3129 19.076V22.64H70.1129ZM73.2209 19.1C73.5969 19.1 73.9289 19.012 74.2169 18.836C74.5049 18.66 74.7289 18.42 74.8889 18.116C75.0569 17.804 75.1409 17.44 75.1409 17.024C75.1409 16.616 75.0569 16.256 74.8889 15.944C74.7289 15.632 74.5049 15.388 74.2169 15.212C73.9289 15.036 73.5969 14.948 73.2209 14.948C72.8529 14.948 72.5209 15.036 72.2249 15.212C71.9369 15.388 71.7129 15.632 71.5529 15.944C71.3929 16.256 71.3129 16.616 71.3129 17.024C71.3129 17.432 71.3929 17.792 71.5529 18.104C71.7129 18.416 71.9369 18.66 72.2249 18.836C72.5209 19.012 72.8529 19.1 73.2209 19.1ZM80.0935 20.144C79.6055 20.144 79.1655 20.06 78.7735 19.892C78.3895 19.724 78.0815 19.492 77.8495 19.196C77.6175 18.892 77.4775 18.536 77.4295 18.128H78.6415C78.6895 18.32 78.7735 18.496 78.8935 18.656C79.0135 18.808 79.1735 18.932 79.3735 19.028C79.5815 19.124 79.8215 19.172 80.0935 19.172C80.3575 19.172 80.5735 19.136 80.7415 19.064C80.9095 18.984 81.0335 18.88 81.1135 18.752C81.1935 18.624 81.2335 18.488 81.2335 18.344C81.2335 18.128 81.1775 17.964 81.0655 17.852C80.9535 17.74 80.7895 17.652 80.5735 17.588C80.3655 17.524 80.1135 17.46 79.8175 17.396C79.5775 17.34 79.3295 17.272 79.0735 17.192C78.8175 17.112 78.5855 17.012 78.3775 16.892C78.1695 16.764 78.0015 16.608 77.8735 16.424C77.7455 16.232 77.6815 15.996 77.6815 15.716C77.6815 15.372 77.7695 15.064 77.9455 14.792C78.1295 14.512 78.3895 14.296 78.7255 14.144C79.0615 13.984 79.4615 13.904 79.9255 13.904C80.5815 13.904 81.1135 14.064 81.5215 14.384C81.9375 14.696 82.1775 15.148 82.2415 15.74H81.0895C81.0495 15.468 80.9295 15.256 80.7295 15.104C80.5295 14.952 80.2575 14.876 79.9135 14.876C79.5775 14.876 79.3175 14.944 79.1335 15.08C78.9575 15.216 78.8695 15.396 78.8695 15.62C78.8695 15.756 78.9215 15.88 79.0255 15.992C79.1375 16.096 79.2935 16.184 79.4935 16.256C79.7015 16.328 79.9455 16.396 80.2255 16.46C80.6175 16.54 80.9775 16.64 81.3055 16.76C81.6415 16.88 81.9135 17.052 82.1215 17.276C82.3375 17.5 82.4455 17.828 82.4455 18.26C82.4535 18.628 82.3615 18.956 82.1695 19.244C81.9775 19.524 81.7055 19.744 81.3535 19.904C81.0015 20.064 80.5815 20.144 80.0935 20.144ZM83.943 20V14.048H85.143V20H83.943ZM84.543 12.872C84.311 12.872 84.119 12.8 83.967 12.656C83.823 12.512 83.751 12.328 83.751 12.104C83.751 11.888 83.823 11.712 83.967 11.576C84.119 11.432 84.311 11.36 84.543 11.36C84.767 11.36 84.955 11.432 85.107 11.576C85.259 11.712 85.335 11.888 85.335 12.104C85.335 12.328 85.259 12.512 85.107 12.656C84.955 12.8 84.767 12.872 84.543 12.872Z" fill="black"/>
<path d="M240.876 21.2L237.984 16.652H239.364L242.28 21.2H240.876ZM238.716 20.144C237.892 20.144 237.168 19.964 236.544 19.604C235.92 19.236 235.432 18.728 235.08 18.08C234.728 17.424 234.552 16.664 234.552 15.8C234.552 14.944 234.728 14.192 235.08 13.544C235.432 12.888 235.92 12.376 236.544 12.008C237.168 11.64 237.892 11.456 238.716 11.456C239.548 11.456 240.276 11.64 240.9 12.008C241.532 12.376 242.02 12.888 242.364 13.544C242.708 14.192 242.88 14.944 242.88 15.8C242.88 16.664 242.708 17.424 242.364 18.08C242.02 18.728 241.532 19.236 240.9 19.604C240.276 19.964 239.548 20.144 238.716 20.144ZM238.716 19.076C239.308 19.076 239.824 18.944 240.264 18.68C240.704 18.416 241.044 18.04 241.284 17.552C241.532 17.064 241.656 16.48 241.656 15.8C241.656 15.12 241.532 14.536 241.284 14.048C241.044 13.56 240.704 13.188 240.264 12.932C239.824 12.668 239.308 12.536 238.716 12.536C238.132 12.536 237.62 12.668 237.18 12.932C236.74 13.188 236.396 13.56 236.148 14.048C235.9 14.536 235.776 15.12 235.776 15.8C235.776 16.48 235.9 17.064 236.148 17.552C236.396 18.04 236.74 18.416 237.18 18.68C237.62 18.944 238.132 19.076 238.716 19.076ZM246.721 20C246.337 20 246.005 19.94 245.725 19.82C245.445 19.7 245.229 19.5 245.077 19.22C244.925 18.94 244.849 18.56 244.849 18.08V15.056H243.829V14.048H244.849L245.005 12.56H246.049V14.048H247.753V15.056H246.049V18.092C246.049 18.436 246.121 18.672 246.265 18.8C246.409 18.92 246.657 18.98 247.009 18.98H247.681V20H246.721ZM249.726 22.64L251.214 19.328H250.866L248.478 14.048H249.774L251.682 18.356L253.59 14.048H254.85L250.998 22.64H249.726Z" fill="black"/>
<path d="M295.324 20L298.42 11.6H299.728L302.8 20H301.528L299.068 13.04L296.584 20H295.324ZM296.728 17.924L297.052 16.964H301.012L301.336 17.924H296.728ZM303.949 20V14.048H305.017L305.113 14.888C305.305 14.576 305.557 14.336 305.869 14.168C306.189 13.992 306.553 13.904 306.961 13.904C307.273 13.904 307.553 13.944 307.801 14.024C308.057 14.104 308.281 14.228 308.473 14.396C308.665 14.564 308.825 14.776 308.953 15.032C309.161 14.68 309.449 14.404 309.817 14.204C310.185 14.004 310.577 13.904 310.993 13.904C311.481 13.904 311.901 14.004 312.253 14.204C312.613 14.396 312.885 14.692 313.069 15.092C313.261 15.484 313.357 15.976 313.357 16.568V20H312.169V16.688C312.169 16.112 312.053 15.676 311.821 15.38C311.597 15.076 311.261 14.924 310.813 14.924C310.517 14.924 310.249 15.004 310.009 15.164C309.769 15.316 309.581 15.54 309.445 15.836C309.317 16.132 309.253 16.492 309.253 16.916V20H308.053V16.688C308.053 16.112 307.937 15.676 307.705 15.38C307.481 15.076 307.145 14.924 306.697 14.924C306.401 14.924 306.133 15.004 305.893 15.164C305.661 15.316 305.477 15.54 305.341 15.836C305.213 16.132 305.149 16.492 305.149 16.916V20H303.949ZM317.619 20.144C317.059 20.144 316.551 20.016 316.095 19.76C315.647 19.496 315.291 19.132 315.027 18.668C314.763 18.196 314.631 17.648 314.631 17.024C314.631 16.4 314.763 15.856 315.027 15.392C315.299 14.92 315.663 14.556 316.119 14.3C316.575 14.036 317.083 13.904 317.643 13.904C318.211 13.904 318.719 14.036 319.167 14.3C319.623 14.556 319.983 14.916 320.247 15.38C320.511 15.844 320.643 16.392 320.643 17.024C320.643 17.648 320.507 18.196 320.235 18.668C319.971 19.132 319.611 19.496 319.155 19.76C318.699 20.016 318.187 20.144 317.619 20.144ZM317.631 19.112C317.943 19.112 318.235 19.036 318.507 18.884C318.779 18.724 318.999 18.488 319.167 18.176C319.335 17.864 319.419 17.48 319.419 17.024C319.419 16.56 319.335 16.176 319.167 15.872C319.007 15.56 318.791 15.328 318.519 15.176C318.247 15.016 317.955 14.936 317.643 14.936C317.339 14.936 317.047 15.016 316.767 15.176C316.495 15.328 316.275 15.56 316.107 15.872C315.947 16.176 315.867 16.56 315.867 17.024C315.867 17.48 315.947 17.864 316.107 18.176C316.275 18.488 316.491 18.724 316.755 18.884C317.027 19.036 317.319 19.112 317.631 19.112ZM324.215 20.144C323.743 20.144 323.331 20.048 322.979 19.856C322.635 19.656 322.371 19.36 322.187 18.968C322.003 18.576 321.911 18.08 321.911 17.48V14.048H323.099V17.36C323.099 17.944 323.219 18.384 323.459 18.68C323.707 18.976 324.067 19.124 324.539 19.124C324.859 19.124 325.147 19.048 325.403 18.896C325.659 18.736 325.859 18.508 326.003 18.212C326.147 17.916 326.219 17.556 326.219 17.132V14.048H327.419V20H326.351L326.267 18.956C326.075 19.324 325.799 19.616 325.439 19.832C325.087 20.04 324.679 20.144 324.215 20.144ZM329.05 20V14.048H330.118L330.202 15.092C330.394 14.724 330.666 14.436 331.018 14.228C331.37 14.012 331.778 13.904 332.242 13.904C332.722 13.904 333.134 14.004 333.478 14.204C333.822 14.396 334.086 14.688 334.27 15.08C334.462 15.472 334.558 15.968 334.558 16.568V20H333.37V16.688C333.37 16.112 333.246 15.676 332.998 15.38C332.758 15.076 332.398 14.924 331.918 14.924C331.598 14.924 331.31 15.004 331.054 15.164C330.806 15.316 330.61 15.54 330.466 15.836C330.322 16.132 330.25 16.492 330.25 16.916V20H329.05ZM338.53 20C338.146 20 337.814 19.94 337.534 19.82C337.254 19.7 337.038 19.5 336.886 19.22C336.734 18.94 336.658 18.56 336.658 18.08V15.056H335.638V14.048H336.658L336.814 12.56H337.858V14.048H339.562V15.056H337.858V18.092C337.858 18.436 337.93 18.672 338.074 18.8C338.218 18.92 338.466 18.98 338.818 18.98H339.49V20H338.53Z" fill="black"/>
<path d="M-0.00976562 325.812H349.99" stroke="black"/>
<path d="M188.6 345.144C187.992 345.144 187.456 345.036 186.992 344.82C186.528 344.596 186.168 344.284 185.912 343.884C185.656 343.484 185.528 343.016 185.528 342.48H186.788C186.788 342.784 186.86 343.064 187.004 343.32C187.148 343.568 187.352 343.768 187.616 343.92C187.888 344.064 188.216 344.136 188.6 344.136C188.944 344.136 189.236 344.08 189.476 343.968C189.716 343.856 189.9 343.704 190.028 343.512C190.164 343.312 190.232 343.084 190.232 342.828C190.232 342.524 190.16 342.276 190.016 342.084C189.88 341.892 189.696 341.736 189.464 341.616C189.232 341.496 188.964 341.388 188.66 341.292C188.364 341.196 188.052 341.092 187.724 340.98C187.076 340.756 186.588 340.476 186.26 340.14C185.94 339.796 185.78 339.348 185.78 338.796C185.78 338.324 185.888 337.916 186.104 337.572C186.328 337.22 186.644 336.948 187.052 336.756C187.46 336.556 187.94 336.456 188.492 336.456C189.036 336.456 189.508 336.556 189.908 336.756C190.316 336.956 190.636 337.232 190.868 337.584C191.1 337.936 191.22 338.348 191.228 338.82H189.956C189.956 338.604 189.9 338.392 189.788 338.184C189.676 337.976 189.508 337.808 189.284 337.68C189.06 337.544 188.784 337.476 188.456 337.476C188.184 337.468 187.94 337.512 187.724 337.608C187.508 337.704 187.336 337.844 187.208 338.028C187.088 338.212 187.028 338.432 187.028 338.688C187.028 338.944 187.084 339.152 187.196 339.312C187.308 339.464 187.468 339.596 187.676 339.708C187.884 339.82 188.124 339.924 188.396 340.02C188.676 340.108 188.984 340.208 189.32 340.32C189.728 340.456 190.096 340.624 190.424 340.824C190.752 341.016 191.008 341.268 191.192 341.58C191.384 341.884 191.48 342.276 191.48 342.756C191.48 343.172 191.372 343.56 191.156 343.92C190.94 344.28 190.62 344.576 190.196 344.808C189.772 345.032 189.24 345.144 188.6 345.144ZM195.02 345.144C194.548 345.144 194.136 345.048 193.784 344.856C193.44 344.656 193.176 344.36 192.992 343.968C192.808 343.576 192.716 343.08 192.716 342.48V339.048H193.904V342.36C193.904 342.944 194.024 343.384 194.264 343.68C194.512 343.976 194.872 344.124 195.344 344.124C195.664 344.124 195.952 344.048 196.208 343.896C196.464 343.736 196.664 343.508 196.808 343.212C196.952 342.916 197.024 342.556 197.024 342.132V339.048H198.224V345H197.156L197.072 343.956C196.88 344.324 196.604 344.616 196.244 344.832C195.892 345.04 195.484 345.144 195.02 345.144ZM203.155 345.144C202.835 345.144 202.543 345.1 202.279 345.012C202.015 344.924 201.779 344.804 201.571 344.652C201.363 344.492 201.191 344.3 201.055 344.076L200.935 345H199.855V336.36H201.055V339.984C201.247 339.704 201.511 339.456 201.847 339.24C202.191 339.016 202.631 338.904 203.167 338.904C203.751 338.904 204.259 339.04 204.691 339.312C205.131 339.584 205.475 339.956 205.723 340.428C205.971 340.9 206.095 341.436 206.095 342.036C206.095 342.636 205.971 343.172 205.723 343.644C205.475 344.108 205.131 344.476 204.691 344.748C204.251 345.012 203.739 345.144 203.155 345.144ZM202.963 344.1C203.339 344.1 203.671 344.012 203.959 343.836C204.247 343.66 204.471 343.42 204.631 343.116C204.799 342.804 204.883 342.44 204.883 342.024C204.883 341.616 204.799 341.256 204.631 340.944C204.471 340.632 204.247 340.388 203.959 340.212C203.671 340.036 203.339 339.948 202.963 339.948C202.595 339.948 202.263 340.036 201.967 340.212C201.679 340.388 201.455 340.632 201.295 340.944C201.135 341.256 201.055 341.616 201.055 342.024C201.055 342.432 201.135 342.792 201.295 343.104C201.455 343.416 201.679 343.66 201.967 343.836C202.263 344.012 202.595 344.1 202.963 344.1ZM209.512 345V337.584H207.016V336.6H213.196V337.584H210.712V345H209.512ZM216.021 345.144C215.461 345.144 214.953 345.016 214.497 344.76C214.049 344.496 213.693 344.132 213.429 343.668C213.165 343.196 213.033 342.648 213.033 342.024C213.033 341.4 213.165 340.856 213.429 340.392C213.701 339.92 214.065 339.556 214.521 339.3C214.977 339.036 215.485 338.904 216.045 338.904C216.613 338.904 217.121 339.036 217.569 339.3C218.025 339.556 218.385 339.916 218.649 340.38C218.913 340.844 219.045 341.392 219.045 342.024C219.045 342.648 218.909 343.196 218.637 343.668C218.373 344.132 218.013 344.496 217.557 344.76C217.101 345.016 216.589 345.144 216.021 345.144ZM216.033 344.112C216.345 344.112 216.637 344.036 216.909 343.884C217.181 343.724 217.401 343.488 217.569 343.176C217.737 342.864 217.821 342.48 217.821 342.024C217.821 341.56 217.737 341.176 217.569 340.872C217.409 340.56 217.193 340.328 216.921 340.176C216.649 340.016 216.357 339.936 216.045 339.936C215.741 339.936 215.449 340.016 215.169 340.176C214.897 340.328 214.677 340.56 214.509 340.872C214.349 341.176 214.269 341.56 214.269 342.024C214.269 342.48 214.349 342.864 214.509 343.176C214.677 343.488 214.893 343.724 215.157 343.884C215.429 344.036 215.721 344.112 216.033 344.112ZM222.659 345C222.275 345 221.943 344.94 221.663 344.82C221.383 344.7 221.167 344.5 221.015 344.22C220.863 343.94 220.787 343.56 220.787 343.08V340.056H219.767V339.048H220.787L220.943 337.56H221.987V339.048H223.691V340.056H221.987V343.092C221.987 343.436 222.059 343.672 222.203 343.8C222.347 343.92 222.595 343.98 222.947 343.98H223.619V345H222.659ZM226.996 345.144C226.492 345.144 226.076 345.064 225.748 344.904C225.42 344.736 225.176 344.512 225.016 344.232C224.856 343.952 224.776 343.648 224.776 343.32C224.776 342.928 224.876 342.592 225.076 342.312C225.284 342.032 225.58 341.816 225.964 341.664C226.356 341.512 226.824 341.436 227.368 341.436H228.94C228.94 341.092 228.884 340.808 228.772 340.584C228.668 340.36 228.512 340.192 228.304 340.08C228.096 339.96 227.844 339.9 227.548 339.9C227.18 339.9 226.86 339.992 226.588 340.176C226.324 340.352 226.164 340.612 226.108 340.956H224.908C224.956 340.516 225.104 340.148 225.352 339.852C225.6 339.548 225.916 339.316 226.3 339.156C226.692 338.988 227.108 338.904 227.548 338.904C228.108 338.904 228.58 339.004 228.964 339.204C229.348 339.404 229.64 339.688 229.84 340.056C230.04 340.416 230.14 340.844 230.14 341.34V345H229.096L229 343.98C228.92 344.14 228.816 344.292 228.688 344.436C228.568 344.58 228.424 344.704 228.256 344.808C228.096 344.912 227.908 344.992 227.692 345.048C227.484 345.112 227.252 345.144 226.996 345.144ZM227.224 344.172C227.488 344.172 227.724 344.12 227.932 344.016C228.14 343.912 228.316 343.772 228.46 343.596C228.604 343.412 228.712 343.212 228.784 342.996C228.864 342.772 228.908 342.54 228.916 342.3V342.288H227.488C227.136 342.288 226.852 342.328 226.636 342.408C226.428 342.488 226.276 342.6 226.18 342.744C226.084 342.888 226.036 343.056 226.036 343.248C226.036 343.432 226.08 343.596 226.168 343.74C226.264 343.876 226.4 343.984 226.576 344.064C226.752 344.136 226.968 344.172 227.224 344.172ZM231.648 345V336.36H232.848V345H231.648Z" fill="black"/>
<path d="M187.832 365.812V358.396H185.336V357.412H191.516V358.396H189.032V365.812H187.832ZM193.738 365.957C193.234 365.957 192.818 365.876 192.49 365.716C192.162 365.548 191.918 365.324 191.758 365.044C191.598 364.764 191.518 364.46 191.518 364.132C191.518 363.74 191.618 363.404 191.818 363.124C192.026 362.844 192.322 362.628 192.706 362.476C193.098 362.324 193.566 362.248 194.11 362.248H195.682C195.682 361.904 195.626 361.62 195.514 361.396C195.41 361.172 195.254 361.004 195.046 360.892C194.838 360.772 194.586 360.712 194.29 360.712C193.922 360.712 193.602 360.804 193.33 360.988C193.066 361.164 192.906 361.424 192.85 361.768H191.65C191.698 361.328 191.846 360.96 192.094 360.664C192.342 360.36 192.658 360.128 193.042 359.968C193.434 359.8 193.85 359.716 194.29 359.716C194.85 359.716 195.322 359.816 195.706 360.016C196.09 360.216 196.382 360.5 196.582 360.868C196.782 361.228 196.882 361.656 196.882 362.152V365.812H195.838L195.742 364.792C195.662 364.952 195.558 365.104 195.43 365.248C195.31 365.392 195.166 365.516 194.998 365.62C194.838 365.724 194.65 365.805 194.434 365.861C194.226 365.925 193.994 365.957 193.738 365.957ZM193.966 364.984C194.23 364.984 194.466 364.932 194.674 364.828C194.882 364.724 195.058 364.584 195.202 364.408C195.346 364.224 195.454 364.024 195.526 363.808C195.606 363.584 195.65 363.352 195.658 363.112V363.1H194.23C193.878 363.1 193.594 363.14 193.378 363.22C193.17 363.3 193.018 363.412 192.922 363.556C192.826 363.7 192.778 363.868 192.778 364.06C192.778 364.244 192.822 364.408 192.91 364.552C193.006 364.688 193.142 364.796 193.318 364.876C193.494 364.948 193.71 364.984 193.966 364.984ZM197.79 365.812L199.902 362.836L197.79 359.86H199.098L200.706 362.2L202.314 359.86H203.61L201.498 362.836L203.61 365.812H202.314L200.706 363.472L199.098 365.812H197.79ZM207.115 365.957C206.531 365.957 206.015 365.828 205.567 365.572C205.119 365.308 204.767 364.944 204.511 364.48C204.255 364.016 204.127 363.472 204.127 362.848C204.127 362.224 204.251 361.68 204.499 361.216C204.755 360.744 205.107 360.376 205.555 360.112C206.011 359.848 206.539 359.716 207.139 359.716C207.723 359.716 208.227 359.848 208.651 360.112C209.083 360.368 209.415 360.708 209.647 361.132C209.879 361.556 209.995 362.028 209.995 362.548C209.995 362.628 209.995 362.716 209.995 362.812C209.995 362.908 209.991 363.008 209.983 363.112H205.015V362.272H208.795C208.771 361.792 208.603 361.412 208.291 361.132C207.979 360.852 207.587 360.712 207.115 360.712C206.795 360.712 206.495 360.784 206.215 360.928C205.943 361.072 205.723 361.284 205.555 361.564C205.387 361.836 205.303 362.184 205.303 362.608V362.944C205.303 363.384 205.387 363.752 205.555 364.049C205.723 364.344 205.943 364.572 206.215 364.732C206.495 364.884 206.795 364.96 207.115 364.96C207.491 364.96 207.807 364.872 208.063 364.696C208.319 364.52 208.507 364.288 208.627 364H209.827C209.723 364.376 209.547 364.712 209.299 365.008C209.051 365.296 208.743 365.528 208.375 365.704C208.007 365.872 207.587 365.957 207.115 365.957ZM213.656 365.957C213.168 365.957 212.728 365.872 212.336 365.704C211.952 365.536 211.644 365.304 211.412 365.008C211.18 364.704 211.04 364.348 210.992 363.94H212.204C212.252 364.132 212.336 364.308 212.456 364.468C212.576 364.62 212.736 364.744 212.936 364.84C213.144 364.936 213.384 364.984 213.656 364.984C213.92 364.984 214.136 364.948 214.304 364.876C214.472 364.796 214.596 364.692 214.676 364.564C214.756 364.436 214.796 364.3 214.796 364.156C214.796 363.94 214.74 363.776 214.628 363.664C214.516 363.552 214.352 363.464 214.136 363.4C213.928 363.336 213.676 363.272 213.38 363.208C213.14 363.152 212.892 363.084 212.636 363.004C212.38 362.924 212.148 362.824 211.94 362.704C211.732 362.576 211.564 362.42 211.436 362.236C211.308 362.044 211.244 361.808 211.244 361.528C211.244 361.184 211.332 360.876 211.508 360.604C211.692 360.324 211.952 360.108 212.288 359.956C212.624 359.796 213.024 359.716 213.488 359.716C214.144 359.716 214.676 359.876 215.084 360.196C215.5 360.508 215.74 360.96 215.804 361.552H214.652C214.612 361.28 214.492 361.068 214.292 360.916C214.092 360.764 213.82 360.688 213.476 360.688C213.14 360.688 212.88 360.756 212.696 360.892C212.52 361.028 212.432 361.208 212.432 361.432C212.432 361.568 212.484 361.692 212.588 361.804C212.7 361.908 212.856 361.996 213.056 362.068C213.264 362.14 213.508 362.208 213.788 362.272C214.18 362.352 214.54 362.452 214.868 362.572C215.204 362.692 215.476 362.864 215.684 363.088C215.9 363.312 216.008 363.64 216.008 364.072C216.016 364.44 215.924 364.768 215.732 365.056C215.54 365.336 215.268 365.556 214.916 365.716C214.564 365.876 214.144 365.957 213.656 365.957Z" fill="black"/>
<path d="M187.796 386.812V379.576H185.324V378.412H191.696V379.576H189.224V386.812H187.796ZM194.553 386.957C193.985 386.957 193.469 386.824 193.005 386.56C192.549 386.296 192.189 385.932 191.925 385.468C191.661 384.996 191.529 384.452 191.529 383.836C191.529 383.22 191.661 382.676 191.925 382.204C192.197 381.732 192.561 381.368 193.017 381.112C193.481 380.848 193.997 380.716 194.565 380.716C195.141 380.716 195.657 380.848 196.113 381.112C196.569 381.368 196.929 381.732 197.193 382.204C197.465 382.668 197.601 383.212 197.601 383.836C197.601 384.452 197.465 384.996 197.193 385.468C196.929 385.932 196.565 386.296 196.101 386.56C195.645 386.824 195.129 386.957 194.553 386.957ZM194.553 385.72C194.841 385.72 195.101 385.652 195.333 385.516C195.573 385.372 195.765 385.16 195.909 384.88C196.053 384.6 196.125 384.252 196.125 383.836C196.125 383.42 196.053 383.072 195.909 382.792C195.765 382.512 195.573 382.304 195.333 382.168C195.101 382.024 194.845 381.952 194.565 381.952C194.293 381.952 194.037 382.024 193.797 382.168C193.557 382.304 193.361 382.512 193.209 382.792C193.065 383.072 192.993 383.42 192.993 383.836C192.993 384.252 193.065 384.6 193.209 384.88C193.361 385.16 193.553 385.372 193.785 385.516C194.025 385.652 194.281 385.72 194.553 385.72ZM201.333 386.812C200.933 386.812 200.581 386.748 200.277 386.62C199.973 386.492 199.737 386.28 199.569 385.984C199.409 385.688 199.329 385.288 199.329 384.784V382.06H198.309V380.86H199.329L199.497 379.3H200.769V380.86H202.401V382.06H200.769V384.784C200.769 385.088 200.833 385.3 200.961 385.42C201.089 385.532 201.313 385.588 201.633 385.588H202.353V386.812H201.333ZM205.75 386.957C205.246 386.957 204.83 386.876 204.502 386.716C204.174 386.548 203.93 386.328 203.77 386.056C203.61 385.776 203.53 385.472 203.53 385.144C203.53 384.768 203.626 384.444 203.818 384.172C204.018 383.892 204.31 383.676 204.694 383.524C205.078 383.364 205.554 383.285 206.122 383.285H207.646C207.646 382.972 207.598 382.716 207.502 382.516C207.414 382.308 207.274 382.152 207.082 382.048C206.898 381.944 206.666 381.892 206.386 381.892C206.058 381.892 205.77 381.972 205.522 382.132C205.282 382.284 205.138 382.512 205.09 382.816H203.674C203.714 382.384 203.858 382.012 204.106 381.7C204.354 381.388 204.678 381.148 205.078 380.98C205.478 380.804 205.918 380.716 206.398 380.716C206.958 380.716 207.438 380.816 207.838 381.016C208.246 381.208 208.554 381.484 208.762 381.844C208.978 382.204 209.086 382.64 209.086 383.152V386.812H207.862L207.718 385.852C207.638 386.012 207.534 386.16 207.406 386.296C207.286 386.424 207.146 386.54 206.986 386.644C206.826 386.74 206.642 386.817 206.434 386.873C206.234 386.929 206.006 386.957 205.75 386.957ZM206.074 385.816C206.306 385.816 206.514 385.776 206.698 385.696C206.882 385.608 207.038 385.488 207.166 385.336C207.302 385.184 207.406 385.012 207.478 384.82C207.55 384.628 207.594 384.428 207.61 384.22V384.208H206.278C205.99 384.208 205.754 384.244 205.57 384.316C205.386 384.388 205.25 384.488 205.162 384.616C205.082 384.736 205.042 384.876 205.042 385.036C205.042 385.204 205.082 385.348 205.162 385.468C205.25 385.58 205.37 385.668 205.522 385.732C205.674 385.788 205.858 385.816 206.074 385.816ZM210.577 386.812V378.172H212.017V386.812H210.577Z" fill="black"/>
<path d="M283.591 345V336.6H286.435C287.099 336.6 287.643 336.712 288.067 336.936C288.491 337.16 288.803 337.46 289.003 337.836C289.211 338.204 289.315 338.624 289.315 339.096C289.315 339.544 289.211 339.96 289.003 340.344C288.803 340.72 288.487 341.024 288.055 341.256C287.623 341.48 287.071 341.592 286.399 341.592H284.791V345H283.591ZM288.007 345L286.195 341.268H287.515L289.399 345H288.007ZM284.791 340.68H286.351C286.943 340.68 287.379 340.536 287.659 340.248C287.939 339.952 288.079 339.576 288.079 339.12C288.079 338.656 287.943 338.288 287.671 338.016C287.399 337.744 286.955 337.608 286.339 337.608H284.791V340.68ZM290.785 347.64V339.048H291.865L291.985 339.984C292.113 339.8 292.273 339.624 292.465 339.456C292.657 339.288 292.885 339.156 293.149 339.06C293.421 338.956 293.737 338.904 294.097 338.904C294.681 338.904 295.189 339.04 295.621 339.312C296.061 339.584 296.405 339.956 296.653 340.428C296.901 340.9 297.025 341.436 297.025 342.036C297.025 342.636 296.901 343.172 296.653 343.644C296.405 344.108 296.061 344.476 295.621 344.748C295.181 345.012 294.669 345.144 294.085 345.144C293.613 345.144 293.197 345.052 292.837 344.868C292.477 344.676 292.193 344.412 291.985 344.076V347.64H290.785ZM293.893 344.1C294.269 344.1 294.601 344.012 294.889 343.836C295.177 343.66 295.401 343.42 295.561 343.116C295.729 342.804 295.813 342.44 295.813 342.024C295.813 341.616 295.729 341.256 295.561 340.944C295.401 340.632 295.177 340.388 294.889 340.212C294.601 340.036 294.269 339.948 293.893 339.948C293.525 339.948 293.193 340.036 292.897 340.212C292.609 340.388 292.385 340.632 292.225 340.944C292.065 341.256 291.985 341.616 291.985 342.024C291.985 342.432 292.065 342.792 292.225 343.104C292.385 343.416 292.609 343.66 292.897 343.836C293.193 344.012 293.525 344.1 293.893 344.1ZM301.376 345V344.136C301.92 343.704 302.44 343.268 302.936 342.828C303.44 342.388 303.888 341.952 304.28 341.52C304.672 341.08 304.98 340.652 305.204 340.236C305.428 339.812 305.54 339.408 305.54 339.024C305.54 338.752 305.492 338.5 305.396 338.268C305.308 338.036 305.16 337.848 304.952 337.704C304.744 337.552 304.464 337.476 304.112 337.476C303.776 337.476 303.492 337.552 303.26 337.704C303.028 337.856 302.856 338.06 302.744 338.316C302.632 338.564 302.576 338.84 302.576 339.144H301.412C301.428 338.568 301.552 338.08 301.784 337.68C302.024 337.28 302.348 336.976 302.756 336.768C303.164 336.56 303.624 336.456 304.136 336.456C304.664 336.456 305.124 336.556 305.516 336.756C305.908 336.948 306.208 337.232 306.416 337.608C306.632 337.976 306.74 338.428 306.74 338.964C306.74 339.348 306.664 339.732 306.512 340.116C306.368 340.492 306.164 340.86 305.9 341.22C305.644 341.58 305.356 341.928 305.036 342.264C304.716 342.592 304.388 342.904 304.052 343.2C303.724 343.496 303.408 343.764 303.104 344.004H307.004V345H301.376ZM311.641 345.144C310.889 345.144 310.237 344.964 309.685 344.604C309.141 344.236 308.721 343.728 308.425 343.08C308.137 342.424 307.993 341.664 307.993 340.8C307.993 339.936 308.137 339.18 308.425 338.532C308.721 337.876 309.141 337.368 309.685 337.008C310.229 336.64 310.881 336.456 311.641 336.456C312.401 336.456 313.049 336.64 313.585 337.008C314.129 337.368 314.545 337.876 314.833 338.532C315.129 339.18 315.277 339.936 315.277 340.8C315.277 341.664 315.129 342.424 314.833 343.08C314.545 343.728 314.129 344.236 313.585 344.604C313.049 344.964 312.401 345.144 311.641 345.144ZM311.641 344.076C312.105 344.076 312.517 343.944 312.877 343.68C313.245 343.416 313.533 343.04 313.741 342.552C313.949 342.064 314.053 341.48 314.053 340.8C314.053 340.12 313.949 339.536 313.741 339.048C313.533 338.56 313.245 338.188 312.877 337.932C312.517 337.668 312.105 337.536 311.641 337.536C311.169 337.536 310.749 337.668 310.381 337.932C310.021 338.188 309.737 338.56 309.529 339.048C309.321 339.536 309.217 340.12 309.217 340.8C309.217 341.48 309.321 342.064 309.529 342.552C309.737 343.04 310.021 343.416 310.381 343.68C310.749 343.944 311.169 344.076 311.641 344.076ZM315.553 346.476L316.249 343.704H317.449L316.369 346.476H315.553ZM321.604 345.144C321.02 345.144 320.512 345.036 320.08 344.82C319.648 344.604 319.308 344.312 319.06 343.944C318.812 343.576 318.66 343.16 318.604 342.696H319.768C319.856 343.12 320.064 343.464 320.392 343.728C320.72 343.992 321.128 344.124 321.616 344.124C321.984 344.124 322.3 344.036 322.564 343.86C322.828 343.684 323.032 343.448 323.176 343.152C323.328 342.848 323.404 342.516 323.404 342.156C323.404 341.764 323.328 341.424 323.176 341.136C323.024 340.848 322.816 340.624 322.552 340.464C322.296 340.304 321.996 340.224 321.652 340.224C321.22 340.224 320.852 340.324 320.548 340.524C320.244 340.716 320.024 340.968 319.888 341.28H318.748L319.468 336.6H323.956V337.644H320.38L319.924 339.984C320.116 339.76 320.372 339.58 320.692 339.444C321.02 339.3 321.392 339.228 321.808 339.228C322.24 339.228 322.624 339.304 322.96 339.456C323.296 339.608 323.584 339.816 323.824 340.08C324.064 340.344 324.244 340.652 324.364 341.004C324.492 341.356 324.556 341.736 324.556 342.144C324.556 342.56 324.488 342.952 324.352 343.32C324.224 343.68 324.028 344 323.764 344.28C323.508 344.552 323.2 344.764 322.84 344.916C322.48 345.068 322.068 345.144 321.604 345.144ZM329.419 345.144C328.667 345.144 328.015 344.964 327.463 344.604C326.919 344.236 326.499 343.728 326.203 343.08C325.915 342.424 325.771 341.664 325.771 340.8C325.771 339.936 325.915 339.18 326.203 338.532C326.499 337.876 326.919 337.368 327.463 337.008C328.007 336.64 328.659 336.456 329.419 336.456C330.179 336.456 330.827 336.64 331.363 337.008C331.907 337.368 332.323 337.876 332.611 338.532C332.907 339.18 333.055 339.936 333.055 340.8C333.055 341.664 332.907 342.424 332.611 343.08C332.323 343.728 331.907 344.236 331.363 344.604C330.827 344.964 330.179 345.144 329.419 345.144ZM329.419 344.076C329.883 344.076 330.295 343.944 330.655 343.68C331.023 343.416 331.311 343.04 331.519 342.552C331.727 342.064 331.831 341.48 331.831 340.8C331.831 340.12 331.727 339.536 331.519 339.048C331.311 338.56 331.023 338.188 330.655 337.932C330.295 337.668 329.883 337.536 329.419 337.536C328.947 337.536 328.527 337.668 328.159 337.932C327.799 338.188 327.515 338.56 327.307 339.048C327.099 339.536 326.995 340.12 326.995 340.8C326.995 341.48 327.099 342.064 327.307 342.552C327.515 343.04 327.799 343.416 328.159 343.68C328.527 343.944 328.947 344.076 329.419 344.076ZM337.809 345.144C337.057 345.144 336.405 344.964 335.853 344.604C335.309 344.236 334.889 343.728 334.593 343.08C334.305 342.424 334.161 341.664 334.161 340.8C334.161 339.936 334.305 339.18 334.593 338.532C334.889 337.876 335.309 337.368 335.853 337.008C336.397 336.64 337.049 336.456 337.809 336.456C338.569 336.456 339.217 336.64 339.753 337.008C340.297 337.368 340.713 337.876 341.001 338.532C341.297 339.18 341.445 339.936 341.445 340.8C341.445 341.664 341.297 342.424 341.001 343.08C340.713 343.728 340.297 344.236 339.753 344.604C339.217 344.964 338.569 345.144 337.809 345.144ZM337.809 344.076C338.273 344.076 338.685 343.944 339.045 343.68C339.413 343.416 339.701 343.04 339.909 342.552C340.117 342.064 340.221 341.48 340.221 340.8C340.221 340.12 340.117 339.536 339.909 339.048C339.701 338.56 339.413 338.188 339.045 337.932C338.685 337.668 338.273 337.536 337.809 337.536C337.337 337.536 336.917 337.668 336.549 337.932C336.189 338.188 335.905 338.56 335.697 339.048C335.489 339.536 335.385 340.12 335.385 340.8C335.385 341.48 335.489 342.064 335.697 342.552C335.905 343.04 336.189 343.416 336.549 343.68C336.917 343.944 337.337 344.076 337.809 344.076Z" fill="black"/>
<path d="M290.001 366V357.6H292.845C293.509 357.6 294.053 357.712 294.477 357.936C294.901 358.16 295.213 358.46 295.413 358.836C295.621 359.204 295.725 359.624 295.725 360.096C295.725 360.544 295.621 360.96 295.413 361.344C295.213 361.72 294.897 362.024 294.465 362.256C294.033 362.48 293.481 362.592 292.809 362.592H291.201V366H290.001ZM294.417 366L292.605 362.268H293.925L295.809 366H294.417ZM291.201 361.68H292.761C293.353 361.68 293.789 361.536 294.069 361.248C294.349 360.952 294.489 360.576 294.489 360.12C294.489 359.656 294.353 359.288 294.081 359.016C293.809 358.744 293.365 358.608 292.749 358.608H291.201V361.68ZM297.195 368.64V360.048H298.275L298.395 360.984C298.523 360.8 298.683 360.624 298.875 360.456C299.067 360.288 299.295 360.156 299.559 360.06C299.831 359.956 300.147 359.904 300.507 359.904C301.091 359.904 301.599 360.04 302.031 360.312C302.471 360.584 302.815 360.956 303.063 361.428C303.311 361.9 303.435 362.436 303.435 363.036C303.435 363.636 303.311 364.172 303.063 364.644C302.815 365.108 302.471 365.476 302.031 365.748C301.591 366.012 301.079 366.144 300.495 366.144C300.023 366.144 299.607 366.052 299.247 365.868C298.887 365.676 298.603 365.412 298.395 365.076V368.64H297.195ZM300.303 365.1C300.679 365.1 301.011 365.012 301.299 364.836C301.587 364.66 301.811 364.42 301.971 364.116C302.139 363.804 302.223 363.44 302.223 363.024C302.223 362.616 302.139 362.256 301.971 361.944C301.811 361.632 301.587 361.388 301.299 361.212C301.011 361.036 300.679 360.948 300.303 360.948C299.935 360.948 299.603 361.036 299.307 361.212C299.019 361.388 298.795 361.632 298.635 361.944C298.475 362.256 298.395 362.616 298.395 363.024C298.395 363.432 298.475 363.792 298.635 364.104C298.795 364.416 299.019 364.66 299.307 364.836C299.603 365.012 299.935 365.1 300.303 365.1ZM310.846 366.144C310.262 366.144 309.754 366.036 309.322 365.82C308.89 365.604 308.55 365.312 308.302 364.944C308.054 364.576 307.902 364.16 307.846 363.696H309.01C309.098 364.12 309.306 364.464 309.634 364.728C309.962 364.992 310.37 365.124 310.858 365.124C311.226 365.124 311.542 365.036 311.806 364.86C312.07 364.684 312.274 364.448 312.418 364.152C312.57 363.848 312.646 363.516 312.646 363.156C312.646 362.764 312.57 362.424 312.418 362.136C312.266 361.848 312.058 361.624 311.794 361.464C311.538 361.304 311.238 361.224 310.894 361.224C310.462 361.224 310.094 361.324 309.79 361.524C309.486 361.716 309.266 361.968 309.13 362.28H307.99L308.71 357.6H313.198V358.644H309.622L309.166 360.984C309.358 360.76 309.614 360.58 309.934 360.444C310.262 360.3 310.634 360.228 311.05 360.228C311.482 360.228 311.866 360.304 312.202 360.456C312.538 360.608 312.826 360.816 313.066 361.08C313.306 361.344 313.486 361.652 313.606 362.004C313.734 362.356 313.798 362.736 313.798 363.144C313.798 363.56 313.73 363.952 313.594 364.32C313.466 364.68 313.27 365 313.006 365.28C312.75 365.552 312.442 365.764 312.082 365.916C311.722 366.068 311.31 366.144 310.846 366.144ZM314.545 367.476L315.241 364.704H316.441L315.361 367.476H314.545ZM321.028 366.144C320.276 366.144 319.624 365.964 319.072 365.604C318.528 365.236 318.108 364.728 317.812 364.08C317.524 363.424 317.38 362.664 317.38 361.8C317.38 360.936 317.524 360.18 317.812 359.532C318.108 358.876 318.528 358.368 319.072 358.008C319.616 357.64 320.268 357.456 321.028 357.456C321.788 357.456 322.436 357.64 322.972 358.008C323.516 358.368 323.932 358.876 324.22 359.532C324.516 360.18 324.664 360.936 324.664 361.8C324.664 362.664 324.516 363.424 324.22 364.08C323.932 364.728 323.516 365.236 322.972 365.604C322.436 365.964 321.788 366.144 321.028 366.144ZM321.028 365.076C321.492 365.076 321.904 364.944 322.264 364.68C322.632 364.416 322.92 364.04 323.128 363.552C323.336 363.064 323.44 362.48 323.44 361.8C323.44 361.12 323.336 360.536 323.128 360.048C322.92 359.56 322.632 359.188 322.264 358.932C321.904 358.668 321.492 358.536 321.028 358.536C320.556 358.536 320.136 358.668 319.768 358.932C319.408 359.188 319.124 359.56 318.916 360.048C318.708 360.536 318.604 361.12 318.604 361.8C318.604 362.48 318.708 363.064 318.916 363.552C319.124 364.04 319.408 364.416 319.768 364.68C320.136 364.944 320.556 365.076 321.028 365.076ZM329.419 366.144C328.667 366.144 328.015 365.964 327.463 365.604C326.919 365.236 326.499 364.728 326.203 364.08C325.915 363.424 325.771 362.664 325.771 361.8C325.771 360.936 325.915 360.18 326.203 359.532C326.499 358.876 326.919 358.368 327.463 358.008C328.007 357.64 328.659 357.456 329.419 357.456C330.179 357.456 330.827 357.64 331.363 358.008C331.907 358.368 332.323 358.876 332.611 359.532C332.907 360.18 333.055 360.936 333.055 361.8C333.055 362.664 332.907 363.424 332.611 364.08C332.323 364.728 331.907 365.236 331.363 365.604C330.827 365.964 330.179 366.144 329.419 366.144ZM329.419 365.076C329.883 365.076 330.295 364.944 330.655 364.68C331.023 364.416 331.311 364.04 331.519 363.552C331.727 363.064 331.831 362.48 331.831 361.8C331.831 361.12 331.727 360.536 331.519 360.048C331.311 359.56 331.023 359.188 330.655 358.932C330.295 358.668 329.883 358.536 329.419 358.536C328.947 358.536 328.527 358.668 328.159 358.932C327.799 359.188 327.515 359.56 327.307 360.048C327.099 360.536 326.995 361.12 326.995 361.8C326.995 362.48 327.099 363.064 327.307 363.552C327.515 364.04 327.799 364.416 328.159 364.68C328.527 364.944 328.947 365.076 329.419 365.076ZM337.809 366.144C337.057 366.144 336.405 365.964 335.853 365.604C335.309 365.236 334.889 364.728 334.593 364.08C334.305 363.424 334.161 362.664 334.161 361.8C334.161 360.936 334.305 360.18 334.593 359.532C334.889 358.876 335.309 358.368 335.853 358.008C336.397 357.64 337.049 357.456 337.809 357.456C338.569 357.456 339.217 357.64 339.753 358.008C340.297 358.368 340.713 358.876 341.001 359.532C341.297 360.18 341.445 360.936 341.445 361.8C341.445 362.664 341.297 363.424 341.001 364.08C340.713 364.728 340.297 365.236 339.753 365.604C339.217 365.964 338.569 366.144 337.809 366.144ZM337.809 365.076C338.273 365.076 338.685 364.944 339.045 364.68C339.413 364.416 339.701 364.04 339.909 363.552C340.117 363.064 340.221 362.48 340.221 361.8C340.221 361.12 340.117 360.536 339.909 360.048C339.701 359.56 339.413 359.188 339.045 358.932C338.685 358.668 338.273 358.536 337.809 358.536C337.337 358.536 336.917 358.668 336.549 358.932C336.189 359.188 335.905 359.56 335.697 360.048C335.489 360.536 335.385 361.12 335.385 361.8C335.385 362.48 335.489 363.064 335.697 363.552C335.905 364.04 336.189 364.416 336.549 364.68C336.917 364.944 337.337 365.076 337.809 365.076Z" fill="black"/>
<path d="M283.391 387V378.6H286.403C287.075 378.6 287.627 378.716 288.059 378.948C288.491 379.172 288.811 379.476 289.019 379.86C289.235 380.236 289.342 380.664 289.342 381.144C289.342 381.592 289.239 382.008 289.031 382.392C288.823 382.776 288.499 383.084 288.059 383.316C287.627 383.548 287.067 383.664 286.379 383.664H284.831V387H283.391ZM287.771 387L286.007 383.292H287.579L289.427 387H287.771ZM284.831 382.596H286.319C286.847 382.596 287.235 382.468 287.483 382.212C287.739 381.948 287.867 381.604 287.867 381.18C287.867 380.764 287.743 380.432 287.495 380.184C287.255 379.928 286.859 379.8 286.307 379.8H284.831V382.596ZM290.761 389.64V381.048H292.045L292.201 381.924C292.329 381.748 292.485 381.58 292.669 381.42C292.853 381.26 293.073 381.136 293.329 381.048C293.585 380.952 293.885 380.904 294.229 380.904C294.797 380.904 295.297 381.04 295.729 381.312C296.169 381.584 296.517 381.956 296.773 382.428C297.029 382.9 297.157 383.436 297.157 384.036C297.157 384.636 297.029 385.172 296.773 385.644C296.517 386.108 296.169 386.476 295.729 386.748C295.289 387.012 294.785 387.144 294.217 387.144C293.761 387.144 293.361 387.06 293.017 386.892C292.681 386.716 292.409 386.468 292.201 386.148V389.64H290.761ZM293.929 385.896C294.273 385.896 294.577 385.816 294.841 385.656C295.113 385.496 295.321 385.276 295.465 384.996C295.617 384.716 295.693 384.392 295.693 384.024C295.693 383.664 295.617 383.344 295.465 383.064C295.321 382.776 295.113 382.552 294.841 382.392C294.577 382.232 294.273 382.152 293.929 382.152C293.585 382.152 293.281 382.232 293.017 382.392C292.753 382.552 292.545 382.772 292.393 383.052C292.249 383.332 292.177 383.656 292.177 384.024C292.177 384.392 292.249 384.716 292.393 384.996C292.545 385.276 292.753 385.496 293.017 385.656C293.281 385.816 293.585 385.896 293.929 385.896ZM301.292 387V385.956C301.82 385.532 302.324 385.108 302.804 384.684C303.292 384.26 303.728 383.84 304.112 383.424C304.504 383.008 304.812 382.6 305.036 382.2C305.26 381.8 305.372 381.416 305.372 381.048C305.372 380.808 305.328 380.584 305.24 380.376C305.152 380.168 305.016 380 304.832 379.872C304.648 379.744 304.404 379.68 304.1 379.68C303.796 379.68 303.54 379.748 303.332 379.884C303.124 380.02 302.968 380.204 302.864 380.436C302.76 380.66 302.708 380.916 302.708 381.204H301.316C301.332 380.596 301.464 380.088 301.712 379.68C301.96 379.272 302.292 378.968 302.708 378.768C303.132 378.56 303.608 378.456 304.136 378.456C304.696 378.456 305.176 378.56 305.576 378.768C305.976 378.976 306.28 379.268 306.488 379.644C306.704 380.02 306.812 380.464 306.812 380.976C306.812 381.352 306.74 381.724 306.596 382.092C306.46 382.452 306.268 382.804 306.02 383.148C305.78 383.484 305.508 383.812 305.204 384.132C304.9 384.444 304.584 384.744 304.256 385.032C303.936 385.312 303.624 385.572 303.32 385.812H307.04V387H301.292ZM311.327 387.144C310.727 387.144 310.207 387.036 309.767 386.82C309.327 386.604 308.979 386.308 308.723 385.932C308.475 385.556 308.327 385.128 308.279 384.648H309.683C309.755 385.016 309.939 385.32 310.235 385.56C310.531 385.8 310.899 385.92 311.339 385.92C311.659 385.92 311.939 385.84 312.179 385.68C312.419 385.52 312.603 385.308 312.731 385.044C312.867 384.772 312.935 384.468 312.935 384.132C312.935 383.78 312.867 383.476 312.731 383.22C312.595 382.964 312.407 382.764 312.167 382.62C311.935 382.476 311.667 382.404 311.363 382.404C310.979 382.404 310.651 382.496 310.379 382.68C310.107 382.864 309.911 383.092 309.791 383.364H308.411L309.131 378.6H313.739V379.86H310.211L309.803 381.912C309.987 381.712 310.231 381.548 310.535 381.42C310.847 381.292 311.199 381.228 311.591 381.228C312.031 381.228 312.419 381.308 312.755 381.468C313.099 381.62 313.387 381.828 313.619 382.092C313.851 382.356 314.027 382.664 314.147 383.016C314.267 383.36 314.327 383.728 314.327 384.12C314.327 384.552 314.255 384.952 314.111 385.32C313.967 385.688 313.763 386.008 313.499 386.28C313.235 386.552 312.919 386.764 312.551 386.916C312.191 387.068 311.783 387.144 311.327 387.144ZM315.121 388.476L315.805 385.548H317.209L316.069 388.476H315.121ZM321.406 387.144C320.806 387.144 320.286 387.036 319.846 386.82C319.406 386.604 319.058 386.308 318.802 385.932C318.554 385.556 318.406 385.128 318.358 384.648H319.762C319.834 385.016 320.018 385.32 320.314 385.56C320.61 385.8 320.978 385.92 321.418 385.92C321.738 385.92 322.018 385.84 322.258 385.68C322.498 385.52 322.682 385.308 322.81 385.044C322.946 384.772 323.014 384.468 323.014 384.132C323.014 383.78 322.946 383.476 322.81 383.22C322.674 382.964 322.486 382.764 322.246 382.62C322.014 382.476 321.746 382.404 321.442 382.404C321.058 382.404 320.73 382.496 320.458 382.68C320.186 382.864 319.99 383.092 319.87 383.364H318.49L319.21 378.6H323.818V379.86H320.29L319.882 381.912C320.066 381.712 320.31 381.548 320.614 381.42C320.926 381.292 321.278 381.228 321.67 381.228C322.11 381.228 322.498 381.308 322.834 381.468C323.178 381.62 323.466 381.828 323.698 382.092C323.93 382.356 324.106 382.664 324.226 383.016C324.346 383.36 324.406 383.728 324.406 384.12C324.406 384.552 324.334 384.952 324.19 385.32C324.046 385.688 323.842 386.008 323.578 386.28C323.314 386.552 322.998 386.764 322.63 386.916C322.27 387.068 321.862 387.144 321.406 387.144ZM329.279 387.144C328.511 387.144 327.847 386.964 327.287 386.604C326.735 386.236 326.311 385.728 326.015 385.08C325.719 384.424 325.571 383.664 325.571 382.8C325.571 381.936 325.719 381.18 326.015 380.532C326.311 379.876 326.735 379.368 327.287 379.008C327.839 378.64 328.503 378.456 329.279 378.456C330.047 378.456 330.703 378.64 331.247 379.008C331.799 379.368 332.223 379.876 332.519 380.532C332.815 381.18 332.963 381.936 332.963 382.8C332.963 383.664 332.815 384.424 332.519 385.08C332.223 385.728 331.799 386.236 331.247 386.604C330.703 386.964 330.047 387.144 329.279 387.144ZM329.279 385.848C329.711 385.848 330.095 385.728 330.431 385.488C330.767 385.24 331.027 384.888 331.211 384.432C331.403 383.976 331.499 383.432 331.499 382.8C331.499 382.168 331.403 381.624 331.211 381.168C331.027 380.712 330.767 380.364 330.431 380.124C330.095 379.876 329.711 379.752 329.279 379.752C328.839 379.752 328.451 379.876 328.115 380.124C327.779 380.364 327.515 380.712 327.323 381.168C327.139 381.624 327.047 382.168 327.047 382.8C327.047 383.432 327.139 383.976 327.323 384.432C327.515 384.888 327.779 385.24 328.115 385.488C328.451 385.728 328.839 385.848 329.279 385.848ZM337.764 387.144C336.996 387.144 336.332 386.964 335.772 386.604C335.22 386.236 334.796 385.728 334.5 385.08C334.204 384.424 334.056 383.664 334.056 382.8C334.056 381.936 334.204 381.18 334.5 380.532C334.796 379.876 335.22 379.368 335.772 379.008C336.324 378.64 336.988 378.456 337.764 378.456C338.532 378.456 339.188 378.64 339.732 379.008C340.284 379.368 340.708 379.876 341.004 380.532C341.3 381.18 341.448 381.936 341.448 382.8C341.448 383.664 341.3 384.424 341.004 385.08C340.708 385.728 340.284 386.236 339.732 386.604C339.188 386.964 338.532 387.144 337.764 387.144ZM337.764 385.848C338.196 385.848 338.58 385.728 338.916 385.488C339.252 385.24 339.512 384.888 339.696 384.432C339.888 383.976 339.984 383.432 339.984 382.8C339.984 382.168 339.888 381.624 339.696 381.168C339.512 380.712 339.252 380.364 338.916 380.124C338.58 379.876 338.196 379.752 337.764 379.752C337.324 379.752 336.936 379.876 336.6 380.124C336.264 380.364 336 380.712 335.808 381.168C335.624 381.624 335.532 382.168 335.532 382.8C335.532 383.432 335.624 383.976 335.808 384.432C336 384.888 336.264 385.24 336.6 385.488C336.936 385.728 337.324 385.848 337.764 385.848Z" fill="black"/>
<path d="M15.728 45V37.956L14.348 38.268V37.392L16.172 36.6H16.952V45H15.728Z" fill="black"/>
<path d="M38.5 45.144C37.708 45.144 37.016 44.964 36.424 44.604C35.832 44.244 35.372 43.74 35.044 43.092C34.716 42.444 34.552 41.688 34.552 40.824C34.552 39.968 34.72 39.212 35.056 38.556C35.392 37.9 35.868 37.388 36.484 37.02C37.1 36.644 37.832 36.456 38.68 36.456C39.64 36.456 40.436 36.688 41.068 37.152C41.708 37.608 42.12 38.244 42.304 39.06H40.936C40.824 38.596 40.572 38.232 40.18 37.968C39.796 37.696 39.296 37.56 38.68 37.56C38.088 37.56 37.572 37.692 37.132 37.956C36.7 38.22 36.364 38.596 36.124 39.084C35.892 39.572 35.776 40.152 35.776 40.824C35.776 41.504 35.892 42.088 36.124 42.576C36.364 43.064 36.692 43.436 37.108 43.692C37.532 43.948 38.02 44.076 38.572 44.076C39.42 44.076 40.06 43.832 40.492 43.344C40.924 42.856 41.172 42.204 41.236 41.388H38.932V40.464H42.46V45H41.356L41.26 43.716C41.068 44.028 40.844 44.292 40.588 44.508C40.34 44.716 40.044 44.876 39.7 44.988C39.364 45.092 38.964 45.144 38.5 45.144ZM46.1523 45.144C45.6803 45.144 45.2683 45.048 44.9163 44.856C44.5723 44.656 44.3083 44.36 44.1243 43.968C43.9403 43.576 43.8483 43.08 43.8483 42.48V39.048H45.0363V42.36C45.0363 42.944 45.1563 43.384 45.3963 43.68C45.6443 43.976 46.0043 44.124 46.4763 44.124C46.7963 44.124 47.0843 44.048 47.3403 43.896C47.5963 43.736 47.7963 43.508 47.9403 43.212C48.0843 42.916 48.1563 42.556 48.1563 42.132V39.048H49.3563V45H48.2883L48.2043 43.956C48.0123 44.324 47.7363 44.616 47.3763 44.832C47.0243 45.04 46.6163 45.144 46.1523 45.144ZM50.9879 45V39.048H52.0679L52.1639 40.188C52.2999 39.924 52.4719 39.696 52.6799 39.504C52.8879 39.312 53.1319 39.164 53.4119 39.06C53.6999 38.956 54.0239 38.904 54.3839 38.904V40.164H54.0479C53.7919 40.164 53.5479 40.196 53.3159 40.26C53.0919 40.324 52.8919 40.428 52.7159 40.572C52.5479 40.716 52.4159 40.916 52.3199 41.172C52.2319 41.42 52.1879 41.732 52.1879 42.108V45H50.9879ZM55.5719 45V39.048H56.7719V45H55.5719ZM56.1719 37.872C55.9399 37.872 55.7479 37.8 55.5959 37.656C55.4519 37.512 55.3799 37.328 55.3799 37.104C55.3799 36.888 55.4519 36.712 55.5959 36.576C55.7479 36.432 55.9399 36.36 56.1719 36.36C56.3959 36.36 56.5839 36.432 56.7359 36.576C56.8879 36.712 56.9639 36.888 56.9639 37.104C56.9639 37.328 56.8879 37.512 56.7359 37.656C56.5839 37.8 56.3959 37.872 56.1719 37.872ZM61.5828 45V36.6H64.6908C65.2748 36.6 65.7628 36.696 66.1548 36.888C66.5468 37.072 66.8388 37.328 67.0308 37.656C67.2308 37.976 67.3307 38.34 67.3307 38.748C67.3307 39.172 67.2387 39.528 67.0547 39.816C66.8707 40.104 66.6267 40.328 66.3228 40.488C66.0268 40.64 65.7068 40.728 65.3628 40.752L65.5308 40.632C65.8988 40.64 66.2348 40.74 66.5388 40.932C66.8428 41.116 67.0828 41.364 67.2588 41.676C67.4348 41.988 67.5228 42.332 67.5228 42.708C67.5228 43.14 67.4188 43.532 67.2108 43.884C67.0028 44.228 66.6948 44.5 66.2868 44.7C65.8788 44.9 65.3788 45 64.7868 45H61.5828ZM62.7828 44.004H64.6308C65.1588 44.004 65.5668 43.884 65.8548 43.644C66.1508 43.396 66.2988 43.048 66.2988 42.6C66.2988 42.16 66.1468 41.808 65.8428 41.544C65.5468 41.28 65.1348 41.148 64.6068 41.148H62.7828V44.004ZM62.7828 40.224H64.5588C65.0628 40.224 65.4468 40.108 65.7108 39.876C65.9748 39.636 66.1068 39.308 66.1068 38.892C66.1068 38.492 65.9748 38.176 65.7108 37.944C65.4468 37.704 65.0508 37.584 64.5228 37.584H62.7828V40.224ZM71.6304 45.144C71.0464 45.144 70.5304 45.016 70.0824 44.76C69.6344 44.496 69.2824 44.132 69.0264 43.668C68.7704 43.204 68.6424 42.66 68.6424 42.036C68.6424 41.412 68.7664 40.868 69.0144 40.404C69.2704 39.932 69.6224 39.564 70.0704 39.3C70.5264 39.036 71.0544 38.904 71.6544 38.904C72.2384 38.904 72.7424 39.036 73.1664 39.3C73.5984 39.556 73.9304 39.896 74.1624 40.32C74.3944 40.744 74.5104 41.216 74.5104 41.736C74.5104 41.816 74.5104 41.904 74.5104 42C74.5104 42.096 74.5064 42.196 74.4984 42.3H69.5304V41.46H73.3104C73.2864 40.98 73.1184 40.6 72.8064 40.32C72.4944 40.04 72.1024 39.9 71.6304 39.9C71.3104 39.9 71.0104 39.972 70.7304 40.116C70.4584 40.26 70.2384 40.472 70.0704 40.752C69.9024 41.024 69.8184 41.372 69.8184 41.796V42.132C69.8184 42.572 69.9024 42.94 70.0704 43.236C70.2384 43.532 70.4584 43.76 70.7304 43.92C71.0104 44.072 71.3104 44.148 71.6304 44.148C72.0064 44.148 72.3224 44.06 72.5784 43.884C72.8344 43.708 73.0224 43.476 73.1424 43.188H74.3424C74.2384 43.564 74.0624 43.9 73.8144 44.196C73.5664 44.484 73.2584 44.716 72.8904 44.892C72.5224 45.06 72.1024 45.144 71.6304 45.144ZM78.5796 45.144C77.9956 45.144 77.4796 45.016 77.0316 44.76C76.5836 44.496 76.2316 44.132 75.9756 43.668C75.7196 43.204 75.5916 42.66 75.5916 42.036C75.5916 41.412 75.7156 40.868 75.9636 40.404C76.2196 39.932 76.5716 39.564 77.0196 39.3C77.4756 39.036 78.0036 38.904 78.6036 38.904C79.1876 38.904 79.6916 39.036 80.1156 39.3C80.5476 39.556 80.8796 39.896 81.1116 40.32C81.3436 40.744 81.4596 41.216 81.4596 41.736C81.4596 41.816 81.4596 41.904 81.4596 42C81.4596 42.096 81.4556 42.196 81.4476 42.3H76.4796V41.46H80.2596C80.2356 40.98 80.0676 40.6 79.7556 40.32C79.4436 40.04 79.0516 39.9 78.5796 39.9C78.2596 39.9 77.9596 39.972 77.6796 40.116C77.4076 40.26 77.1876 40.472 77.0196 40.752C76.8516 41.024 76.7676 41.372 76.7676 41.796V42.132C76.7676 42.572 76.8516 42.94 77.0196 43.236C77.1876 43.532 77.4076 43.76 77.6796 43.92C77.9596 44.072 78.2596 44.148 78.5796 44.148C78.9556 44.148 79.2716 44.06 79.5276 43.884C79.7836 43.708 79.9716 43.476 80.0916 43.188H81.2916C81.1876 43.564 81.0116 43.9 80.7636 44.196C80.5156 44.484 80.2076 44.716 79.8396 44.892C79.4716 45.06 79.0516 45.144 78.5796 45.144ZM85.8874 45V36.6H88.7314C89.3954 36.6 89.9394 36.712 90.3634 36.936C90.7874 37.16 91.0994 37.46 91.2994 37.836C91.5074 38.204 91.6114 38.624 91.6114 39.096C91.6114 39.544 91.5074 39.96 91.2994 40.344C91.0994 40.72 90.7834 41.024 90.3514 41.256C89.9194 41.48 89.3674 41.592 88.6954 41.592H87.0874V45H85.8874ZM90.3034 45L88.4914 41.268H89.8114L91.6954 45H90.3034ZM87.0874 40.68H88.6474C89.2394 40.68 89.6754 40.536 89.9554 40.248C90.2354 39.952 90.3754 39.576 90.3754 39.12C90.3754 38.656 90.2394 38.288 89.9674 38.016C89.6954 37.744 89.2514 37.608 88.6354 37.608H87.0874V40.68ZM95.2656 45.144C94.7936 45.144 94.3816 45.048 94.0296 44.856C93.6856 44.656 93.4216 44.36 93.2376 43.968C93.0536 43.576 92.9616 43.08 92.9616 42.48V39.048H94.1496V42.36C94.1496 42.944 94.2696 43.384 94.5096 43.68C94.7576 43.976 95.1176 44.124 95.5896 44.124C95.9096 44.124 96.1976 44.048 96.4536 43.896C96.7096 43.736 96.9096 43.508 97.0536 43.212C97.1976 42.916 97.2696 42.556 97.2696 42.132V39.048H98.4696V45H97.4016L97.3176 43.956C97.1256 44.324 96.8496 44.616 96.4896 44.832C96.1376 45.04 95.7296 45.144 95.2656 45.144ZM100.101 45V39.048H101.169L101.265 39.888C101.457 39.576 101.709 39.336 102.021 39.168C102.341 38.992 102.705 38.904 103.113 38.904C103.425 38.904 103.705 38.944 103.953 39.024C104.209 39.104 104.433 39.228 104.625 39.396C104.817 39.564 104.977 39.776 105.105 40.032C105.313 39.68 105.601 39.404 105.969 39.204C106.337 39.004 106.729 38.904 107.145 38.904C107.633 38.904 108.053 39.004 108.405 39.204C108.765 39.396 109.037 39.692 109.221 40.092C109.413 40.484 109.509 40.976 109.509 41.568V45H108.321V41.688C108.321 41.112 108.205 40.676 107.973 40.38C107.749 40.076 107.413 39.924 106.965 39.924C106.669 39.924 106.401 40.004 106.161 40.164C105.921 40.316 105.733 40.54 105.597 40.836C105.469 41.132 105.405 41.492 105.405 41.916V45H104.205V41.688C104.205 41.112 104.089 40.676 103.857 40.38C103.633 40.076 103.297 39.924 102.849 39.924C102.553 39.924 102.285 40.004 102.045 40.164C101.813 40.316 101.629 40.54 101.493 40.836C101.365 41.132 101.301 41.492 101.301 41.916V45H100.101ZM111.023 47.64V39.048H112.103L112.223 39.984C112.351 39.8 112.511 39.624 112.703 39.456C112.895 39.288 113.123 39.156 113.387 39.06C113.659 38.956 113.975 38.904 114.335 38.904C114.919 38.904 115.427 39.04 115.859 39.312C116.299 39.584 116.643 39.956 116.891 40.428C117.139 40.9 117.263 41.436 117.263 42.036C117.263 42.636 117.139 43.172 116.891 43.644C116.643 44.108 116.299 44.476 115.859 44.748C115.419 45.012 114.907 45.144 114.323 45.144C113.851 45.144 113.435 45.052 113.075 44.868C112.715 44.676 112.431 44.412 112.223 44.076V47.64H111.023ZM114.131 44.1C114.507 44.1 114.839 44.012 115.127 43.836C115.415 43.66 115.639 43.42 115.799 43.116C115.967 42.804 116.051 42.44 116.051 42.024C116.051 41.616 115.967 41.256 115.799 40.944C115.639 40.632 115.415 40.388 115.127 40.212C114.839 40.036 114.507 39.948 114.131 39.948C113.763 39.948 113.431 40.036 113.135 40.212C112.847 40.388 112.623 40.632 112.463 40.944C112.303 41.256 112.223 41.616 112.223 42.024C112.223 42.432 112.303 42.792 112.463 43.104C112.623 43.416 112.847 43.66 113.135 43.836C113.431 44.012 113.763 44.1 114.131 44.1ZM120.848 45.144C120.376 45.144 119.964 45.048 119.612 44.856C119.268 44.656 119.004 44.36 118.82 43.968C118.636 43.576 118.544 43.08 118.544 42.48V39.048H119.732V42.36C119.732 42.944 119.852 43.384 120.092 43.68C120.34 43.976 120.7 44.124 121.172 44.124C121.492 44.124 121.78 44.048 122.036 43.896C122.292 43.736 122.492 43.508 122.636 43.212C122.78 42.916 122.852 42.556 122.852 42.132V39.048H124.052V45H122.984L122.9 43.956C122.708 44.324 122.432 44.616 122.072 44.832C121.72 45.04 121.312 45.144 120.848 45.144ZM128.143 45C127.759 45 127.427 44.94 127.147 44.82C126.867 44.7 126.651 44.5 126.499 44.22C126.347 43.94 126.271 43.56 126.271 43.08V40.056H125.251V39.048H126.271L126.427 37.56H127.471V39.048H129.175V40.056H127.471V43.092C127.471 43.436 127.543 43.672 127.687 43.8C127.831 43.92 128.079 43.98 128.431 43.98H129.103V45H128.143ZM133.583 45V36.6H134.783V44.052H138.623V45H133.583ZM141.961 45.144C141.457 45.144 141.041 45.064 140.713 44.904C140.385 44.736 140.141 44.512 139.981 44.232C139.821 43.952 139.741 43.648 139.741 43.32C139.741 42.928 139.841 42.592 140.041 42.312C140.249 42.032 140.545 41.816 140.929 41.664C141.321 41.512 141.789 41.436 142.333 41.436H143.905C143.905 41.092 143.849 40.808 143.737 40.584C143.633 40.36 143.477 40.192 143.269 40.08C143.061 39.96 142.809 39.9 142.513 39.9C142.145 39.9 141.825 39.992 141.553 40.176C141.289 40.352 141.129 40.612 141.073 40.956H139.873C139.921 40.516 140.069 40.148 140.317 39.852C140.565 39.548 140.881 39.316 141.265 39.156C141.657 38.988 142.073 38.904 142.513 38.904C143.073 38.904 143.545 39.004 143.929 39.204C144.313 39.404 144.605 39.688 144.805 40.056C145.005 40.416 145.105 40.844 145.105 41.34V45H144.061L143.965 43.98C143.885 44.14 143.781 44.292 143.653 44.436C143.533 44.58 143.389 44.704 143.221 44.808C143.061 44.912 142.873 44.992 142.657 45.048C142.449 45.112 142.217 45.144 141.961 45.144ZM142.189 44.172C142.453 44.172 142.689 44.12 142.897 44.016C143.105 43.912 143.281 43.772 143.425 43.596C143.569 43.412 143.677 43.212 143.749 42.996C143.829 42.772 143.873 42.54 143.881 42.3V42.288H142.453C142.101 42.288 141.817 42.328 141.601 42.408C141.393 42.488 141.241 42.6 141.145 42.744C141.049 42.888 141.001 43.056 141.001 43.248C141.001 43.432 141.045 43.596 141.133 43.74C141.229 43.876 141.365 43.984 141.541 44.064C141.717 44.136 141.933 44.172 142.189 44.172ZM148.797 45.144C148.325 45.144 147.913 45.048 147.561 44.856C147.217 44.656 146.953 44.36 146.769 43.968C146.585 43.576 146.493 43.08 146.493 42.48V39.048H147.681V42.36C147.681 42.944 147.801 43.384 148.041 43.68C148.289 43.976 148.649 44.124 149.121 44.124C149.441 44.124 149.729 44.048 149.985 43.896C150.241 43.736 150.441 43.508 150.585 43.212C150.729 42.916 150.801 42.556 150.801 42.132V39.048H152.001V45H150.933L150.849 43.956C150.657 44.324 150.381 44.616 150.021 44.832C149.669 45.04 149.261 45.144 148.797 45.144ZM156.092 45C155.708 45 155.376 44.94 155.096 44.82C154.816 44.7 154.6 44.5 154.448 44.22C154.296 43.94 154.22 43.56 154.22 43.08V40.056H153.2V39.048H154.22L154.376 37.56H155.42V39.048H157.124V40.056H155.42V43.092C155.42 43.436 155.492 43.672 155.636 43.8C155.78 43.92 156.028 43.98 156.38 43.98H157.052V45H156.092Z" fill="black"/>
<path d="M241.708 45V44.136C242.252 43.704 242.772 43.268 243.268 42.828C243.772 42.388 244.22 41.952 244.612 41.52C245.004 41.08 245.312 40.652 245.536 40.236C245.76 39.812 245.872 39.408 245.872 39.024C245.872 38.752 245.824 38.5 245.728 38.268C245.64 38.036 245.492 37.848 245.284 37.704C245.076 37.552 244.796 37.476 244.444 37.476C244.108 37.476 243.824 37.552 243.592 37.704C243.36 37.856 243.188 38.06 243.076 38.316C242.964 38.564 242.908 38.84 242.908 39.144H241.744C241.76 38.568 241.884 38.08 242.116 37.68C242.356 37.28 242.68 36.976 243.088 36.768C243.496 36.56 243.956 36.456 244.468 36.456C244.996 36.456 245.456 36.556 245.848 36.756C246.24 36.948 246.54 37.232 246.748 37.608C246.964 37.976 247.072 38.428 247.072 38.964C247.072 39.348 246.996 39.732 246.844 40.116C246.7 40.492 246.496 40.86 246.232 41.22C245.976 41.58 245.688 41.928 245.368 42.264C245.048 42.592 244.72 42.904 244.384 43.2C244.056 43.496 243.74 43.764 243.436 44.004H247.336V45H241.708Z" fill="black"/>
<path d="M285.944 45V36.6H288.788C289.452 36.6 289.996 36.712 290.42 36.936C290.844 37.16 291.156 37.46 291.356 37.836C291.564 38.204 291.668 38.624 291.668 39.096C291.668 39.544 291.564 39.96 291.356 40.344C291.156 40.72 290.84 41.024 290.408 41.256C289.976 41.48 289.424 41.592 288.752 41.592H287.144V45H285.944ZM290.36 45L288.548 41.268H289.868L291.752 45H290.36ZM287.144 40.68H288.704C289.296 40.68 289.732 40.536 290.012 40.248C290.292 39.952 290.432 39.576 290.432 39.12C290.432 38.656 290.296 38.288 290.024 38.016C289.752 37.744 289.308 37.608 288.692 37.608H287.144V40.68ZM293.138 47.64V39.048H294.218L294.338 39.984C294.466 39.8 294.626 39.624 294.818 39.456C295.01 39.288 295.238 39.156 295.502 39.06C295.774 38.956 296.09 38.904 296.45 38.904C297.034 38.904 297.542 39.04 297.974 39.312C298.414 39.584 298.758 39.956 299.006 40.428C299.254 40.9 299.378 41.436 299.378 42.036C299.378 42.636 299.254 43.172 299.006 43.644C298.758 44.108 298.414 44.476 297.974 44.748C297.534 45.012 297.022 45.144 296.438 45.144C295.966 45.144 295.55 45.052 295.19 44.868C294.83 44.676 294.546 44.412 294.338 44.076V47.64H293.138ZM296.246 44.1C296.622 44.1 296.954 44.012 297.242 43.836C297.53 43.66 297.754 43.42 297.914 43.116C298.082 42.804 298.166 42.44 298.166 42.024C298.166 41.616 298.082 41.256 297.914 40.944C297.754 40.632 297.53 40.388 297.242 40.212C296.954 40.036 296.622 39.948 296.246 39.948C295.878 39.948 295.546 40.036 295.25 40.212C294.962 40.388 294.738 40.632 294.578 40.944C294.418 41.256 294.338 41.616 294.338 42.024C294.338 42.432 294.418 42.792 294.578 43.104C294.738 43.416 294.962 43.66 295.25 43.836C295.546 44.012 295.878 44.1 296.246 44.1ZM304.749 45V37.956L303.369 38.268V37.392L305.193 36.6H305.973V45H304.749ZM307.538 45V44.136C308.082 43.704 308.602 43.268 309.098 42.828C309.602 42.388 310.05 41.952 310.442 41.52C310.834 41.08 311.142 40.652 311.366 40.236C311.59 39.812 311.702 39.408 311.702 39.024C311.702 38.752 311.654 38.5 311.558 38.268C311.47 38.036 311.322 37.848 311.114 37.704C310.906 37.552 310.626 37.476 310.274 37.476C309.938 37.476 309.654 37.552 309.422 37.704C309.19 37.856 309.018 38.06 308.906 38.316C308.794 38.564 308.738 38.84 308.738 39.144H307.574C307.59 38.568 307.714 38.08 307.946 37.68C308.186 37.28 308.51 36.976 308.918 36.768C309.326 36.56 309.786 36.456 310.298 36.456C310.826 36.456 311.286 36.556 311.678 36.756C312.07 36.948 312.37 37.232 312.578 37.608C312.794 37.976 312.902 38.428 312.902 38.964C312.902 39.348 312.826 39.732 312.674 40.116C312.53 40.492 312.326 40.86 312.062 41.22C311.806 41.58 311.518 41.928 311.198 42.264C310.878 42.592 310.55 42.904 310.214 43.2C309.886 43.496 309.57 43.764 309.266 44.004H313.166V45H307.538ZM314.969 45.06C314.737 45.06 314.545 44.988 314.393 44.844C314.249 44.692 314.177 44.512 314.177 44.304C314.177 44.088 314.249 43.908 314.393 43.764C314.545 43.612 314.737 43.536 314.969 43.536C315.201 43.536 315.389 43.612 315.533 43.764C315.677 43.908 315.749 44.088 315.749 44.304C315.749 44.512 315.677 44.692 315.533 44.844C315.389 44.988 315.201 45.06 314.969 45.06ZM319.948 45.144C319.196 45.144 318.544 44.964 317.992 44.604C317.448 44.236 317.028 43.728 316.732 43.08C316.444 42.424 316.3 41.664 316.3 40.8C316.3 39.936 316.444 39.18 316.732 38.532C317.028 37.876 317.448 37.368 317.992 37.008C318.536 36.64 319.188 36.456 319.948 36.456C320.708 36.456 321.356 36.64 321.892 37.008C322.436 37.368 322.852 37.876 323.14 38.532C323.436 39.18 323.584 39.936 323.584 40.8C323.584 41.664 323.436 42.424 323.14 43.08C322.852 43.728 322.436 44.236 321.892 44.604C321.356 44.964 320.708 45.144 319.948 45.144ZM319.948 44.076C320.412 44.076 320.824 43.944 321.184 43.68C321.552 43.416 321.84 43.04 322.048 42.552C322.256 42.064 322.36 41.48 322.36 40.8C322.36 40.12 322.256 39.536 322.048 39.048C321.84 38.56 321.552 38.188 321.184 37.932C320.824 37.668 320.412 37.536 319.948 37.536C319.476 37.536 319.056 37.668 318.688 37.932C318.328 38.188 318.044 38.56 317.836 39.048C317.628 39.536 317.524 40.12 317.524 40.8C317.524 41.48 317.628 42.064 317.836 42.552C318.044 43.04 318.328 43.416 318.688 43.68C319.056 43.944 319.476 44.076 319.948 44.076ZM328.339 45.144C327.587 45.144 326.935 44.964 326.383 44.604C325.839 44.236 325.419 43.728 325.123 43.08C324.835 42.424 324.691 41.664 324.691 40.8C324.691 39.936 324.835 39.18 325.123 38.532C325.419 37.876 325.839 37.368 326.383 37.008C326.927 36.64 327.579 36.456 328.339 36.456C329.099 36.456 329.747 36.64 330.283 37.008C330.827 37.368 331.243 37.876 331.531 38.532C331.827 39.18 331.975 39.936 331.975 40.8C331.975 41.664 331.827 42.424 331.531 43.08C331.243 43.728 330.827 44.236 330.283 44.604C329.747 44.964 329.099 45.144 328.339 45.144ZM328.339 44.076C328.803 44.076 329.215 43.944 329.575 43.68C329.943 43.416 330.231 43.04 330.439 42.552C330.647 42.064 330.751 41.48 330.751 40.8C330.751 40.12 330.647 39.536 330.439 39.048C330.231 38.56 329.943 38.188 329.575 37.932C329.215 37.668 328.803 37.536 328.339 37.536C327.867 37.536 327.447 37.668 327.079 37.932C326.719 38.188 326.435 38.56 326.227 39.048C326.019 39.536 325.915 40.12 325.915 40.8C325.915 41.48 326.019 42.064 326.227 42.552C326.435 43.04 326.719 43.416 327.079 43.68C327.447 43.944 327.867 44.076 328.339 44.076ZM336.729 45.144C335.977 45.144 335.325 44.964 334.773 44.604C334.229 44.236 333.809 43.728 333.513 43.08C333.225 42.424 333.081 41.664 333.081 40.8C333.081 39.936 333.225 39.18 333.513 38.532C333.809 37.876 334.229 37.368 334.773 37.008C335.317 36.64 335.969 36.456 336.729 36.456C337.489 36.456 338.137 36.64 338.673 37.008C339.217 37.368 339.633 37.876 339.921 38.532C340.217 39.18 340.365 39.936 340.365 40.8C340.365 41.664 340.217 42.424 339.921 43.08C339.633 43.728 339.217 44.236 338.673 44.604C338.137 44.964 337.489 45.144 336.729 45.144ZM336.729 44.076C337.193 44.076 337.605 43.944 337.965 43.68C338.333 43.416 338.621 43.04 338.829 42.552C339.037 42.064 339.141 41.48 339.141 40.8C339.141 40.12 339.037 39.536 338.829 39.048C338.621 38.56 338.333 38.188 337.965 37.932C337.605 37.668 337.193 37.536 336.729 37.536C336.257 37.536 335.837 37.668 335.469 37.932C335.109 38.188 334.825 38.56 334.617 39.048C334.409 39.536 334.305 40.12 334.305 40.8C334.305 41.48 334.409 42.064 334.617 42.552C334.825 43.04 335.109 43.416 335.469 43.68C335.837 43.944 336.257 44.076 336.729 44.076Z" fill="black"/>
<path d="M15.728 66V58.956L14.348 59.268V58.392L16.172 57.6H16.952V66H15.728Z" fill="black"/>
<path d="M37.6 66.144C36.992 66.144 36.456 66.036 35.992 65.82C35.528 65.596 35.168 65.284 34.912 64.884C34.656 64.484 34.528 64.016 34.528 63.48H35.788C35.788 63.784 35.86 64.064 36.004 64.32C36.148 64.568 36.352 64.768 36.616 64.92C36.888 65.064 37.216 65.136 37.6 65.136C37.944 65.136 38.236 65.08 38.476 64.968C38.716 64.856 38.9 64.704 39.028 64.512C39.164 64.312 39.232 64.084 39.232 63.828C39.232 63.524 39.16 63.276 39.016 63.084C38.88 62.892 38.696 62.736 38.464 62.616C38.232 62.496 37.964 62.388 37.66 62.292C37.364 62.196 37.052 62.092 36.724 61.98C36.076 61.756 35.588 61.476 35.26 61.14C34.94 60.796 34.78 60.348 34.78 59.796C34.78 59.324 34.888 58.916 35.104 58.572C35.328 58.22 35.644 57.948 36.052 57.756C36.46 57.556 36.94 57.456 37.492 57.456C38.036 57.456 38.508 57.556 38.908 57.756C39.316 57.956 39.636 58.232 39.868 58.584C40.1 58.936 40.22 59.348 40.228 59.82H38.956C38.956 59.604 38.9 59.392 38.788 59.184C38.676 58.976 38.508 58.808 38.284 58.68C38.06 58.544 37.784 58.476 37.456 58.476C37.184 58.468 36.94 58.512 36.724 58.608C36.508 58.704 36.336 58.844 36.208 59.028C36.088 59.212 36.028 59.432 36.028 59.688C36.028 59.944 36.084 60.152 36.196 60.312C36.308 60.464 36.468 60.596 36.676 60.708C36.884 60.82 37.124 60.924 37.396 61.02C37.676 61.108 37.984 61.208 38.32 61.32C38.728 61.456 39.096 61.624 39.424 61.824C39.752 62.016 40.008 62.268 40.192 62.58C40.384 62.884 40.48 63.276 40.48 63.756C40.48 64.172 40.372 64.56 40.156 64.92C39.94 65.28 39.62 65.576 39.196 65.808C38.772 66.032 38.24 66.144 37.6 66.144ZM44.0195 66.144C43.5475 66.144 43.1355 66.048 42.7835 65.856C42.4395 65.656 42.1755 65.36 41.9915 64.968C41.8075 64.576 41.7155 64.08 41.7155 63.48V60.048H42.9035V63.36C42.9035 63.944 43.0235 64.384 43.2635 64.68C43.5115 64.976 43.8715 65.124 44.3435 65.124C44.6635 65.124 44.9515 65.048 45.2075 64.896C45.4635 64.736 45.6635 64.508 45.8075 64.212C45.9515 63.916 46.0235 63.556 46.0235 63.132V60.048H47.2235V66H46.1555L46.0715 64.956C45.8795 65.324 45.6035 65.616 45.2435 65.832C44.8915 66.04 44.4835 66.144 44.0195 66.144ZM51.1951 66.144C50.7071 66.144 50.2671 66.06 49.8751 65.892C49.4911 65.724 49.1831 65.492 48.9511 65.196C48.7191 64.892 48.5791 64.536 48.5311 64.128H49.7431C49.7911 64.32 49.8751 64.496 49.9951 64.656C50.1151 64.808 50.2751 64.932 50.4751 65.028C50.6831 65.124 50.9231 65.172 51.1951 65.172C51.4591 65.172 51.6751 65.136 51.8431 65.064C52.0111 64.984 52.1351 64.88 52.2151 64.752C52.2951 64.624 52.3351 64.488 52.3351 64.344C52.3351 64.128 52.2791 63.964 52.1671 63.852C52.0551 63.74 51.8911 63.652 51.6751 63.588C51.4671 63.524 51.2151 63.46 50.9191 63.396C50.6791 63.34 50.4311 63.272 50.1751 63.192C49.9191 63.112 49.6871 63.012 49.4791 62.892C49.2711 62.764 49.1031 62.608 48.9751 62.424C48.8471 62.232 48.7831 61.996 48.7831 61.716C48.7831 61.372 48.8711 61.064 49.0471 60.792C49.2311 60.512 49.4911 60.296 49.8271 60.144C50.1631 59.984 50.5631 59.904 51.0271 59.904C51.6831 59.904 52.2151 60.064 52.6231 60.384C53.0391 60.696 53.2791 61.148 53.3431 61.74H52.1911C52.1511 61.468 52.0311 61.256 51.8311 61.104C51.6311 60.952 51.3591 60.876 51.0151 60.876C50.6791 60.876 50.4191 60.944 50.2351 61.08C50.0591 61.216 49.9711 61.396 49.9711 61.62C49.9711 61.756 50.0231 61.88 50.1271 61.992C50.2391 62.096 50.3951 62.184 50.5951 62.256C50.8031 62.328 51.0471 62.396 51.3271 62.46C51.7191 62.54 52.0791 62.64 52.4071 62.76C52.7431 62.88 53.0151 63.052 53.2231 63.276C53.4391 63.5 53.5471 63.828 53.5471 64.26C53.5551 64.628 53.4631 64.956 53.2711 65.244C53.0791 65.524 52.8071 65.744 52.4551 65.904C52.1031 66.064 51.6831 66.144 51.1951 66.144ZM57.1445 66.144C56.6725 66.144 56.2605 66.048 55.9085 65.856C55.5645 65.656 55.3005 65.36 55.1165 64.968C54.9325 64.576 54.8405 64.08 54.8405 63.48V60.048H56.0285V63.36C56.0285 63.944 56.1485 64.384 56.3885 64.68C56.6365 64.976 56.9965 65.124 57.4685 65.124C57.7885 65.124 58.0765 65.048 58.3325 64.896C58.5885 64.736 58.7885 64.508 58.9325 64.212C59.0765 63.916 59.1485 63.556 59.1485 63.132V60.048H60.3485V66H59.2805L59.1965 64.956C59.0045 65.324 58.7285 65.616 58.3685 65.832C58.0165 66.04 57.6085 66.144 57.1445 66.144ZM68.1947 66.144C67.6027 66.144 67.0667 66.028 66.5867 65.796C66.1147 65.556 65.7347 65.196 65.4467 64.716C65.1587 64.228 65.0147 63.608 65.0147 62.856V57.6H66.2147V62.868C66.2147 63.372 66.2987 63.788 66.4667 64.116C66.6347 64.436 66.8667 64.676 67.1627 64.836C67.4667 64.988 67.8187 65.064 68.2187 65.064C68.6267 65.064 68.9787 64.988 69.2747 64.836C69.5707 64.676 69.7987 64.436 69.9587 64.116C70.1267 63.788 70.2107 63.372 70.2107 62.868V57.6H71.4107V62.856C71.4107 63.608 71.2667 64.228 70.9787 64.716C70.6907 65.196 70.3027 65.556 69.8147 65.796C69.3347 66.028 68.7947 66.144 68.1947 66.144ZM78.4071 66V57.6H79.6071V66H78.4071ZM73.0671 66V57.6H74.2671V66H73.0671ZM74.0631 62.208V61.224H78.6711V62.208H74.0631ZM83.3086 66V58.584H80.8126V57.6H86.9926V58.584H84.5086V66H83.3086ZM94.3626 66.144C93.7706 66.144 93.2346 66.028 92.7546 65.796C92.2826 65.556 91.9026 65.196 91.6146 64.716C91.3266 64.228 91.1826 63.608 91.1826 62.856V57.6H92.3826V62.868C92.3826 63.372 92.4666 63.788 92.6346 64.116C92.8026 64.436 93.0346 64.676 93.3306 64.836C93.6346 64.988 93.9866 65.064 94.3866 65.064C94.7946 65.064 95.1466 64.988 95.4426 64.836C95.7386 64.676 95.9666 64.436 96.1266 64.116C96.2946 63.788 96.3786 63.372 96.3786 62.868V57.6H97.5786V62.856C97.5786 63.608 97.4346 64.228 97.1466 64.716C96.8586 65.196 96.4706 65.556 95.9826 65.796C95.5026 66.028 94.9626 66.144 94.3626 66.144ZM99.1871 66V57.36H100.387V66H99.1871ZM104.471 66C104.087 66 103.755 65.94 103.475 65.82C103.195 65.7 102.979 65.5 102.827 65.22C102.675 64.94 102.599 64.56 102.599 64.08V61.056H101.579V60.048H102.599L102.755 58.56H103.799V60.048H105.503V61.056H103.799V64.092C103.799 64.436 103.871 64.672 104.015 64.8C104.159 64.92 104.407 64.98 104.759 64.98H105.431V66H104.471ZM106.804 66V60.048H107.884L107.98 61.188C108.116 60.924 108.288 60.696 108.496 60.504C108.704 60.312 108.948 60.164 109.228 60.06C109.516 59.956 109.84 59.904 110.2 59.904V61.164H109.864C109.608 61.164 109.364 61.196 109.132 61.26C108.908 61.324 108.708 61.428 108.532 61.572C108.364 61.716 108.232 61.916 108.136 62.172C108.048 62.42 108.004 62.732 108.004 63.108V66H106.804ZM113.308 66.144C112.804 66.144 112.388 66.064 112.06 65.904C111.732 65.736 111.488 65.512 111.328 65.232C111.168 64.952 111.088 64.648 111.088 64.32C111.088 63.928 111.188 63.592 111.388 63.312C111.596 63.032 111.892 62.816 112.276 62.664C112.668 62.512 113.136 62.436 113.68 62.436H115.252C115.252 62.092 115.196 61.808 115.084 61.584C114.98 61.36 114.824 61.192 114.616 61.08C114.408 60.96 114.156 60.9 113.86 60.9C113.492 60.9 113.172 60.992 112.9 61.176C112.636 61.352 112.476 61.612 112.42 61.956H111.22C111.268 61.516 111.416 61.148 111.664 60.852C111.912 60.548 112.228 60.316 112.612 60.156C113.004 59.988 113.42 59.904 113.86 59.904C114.42 59.904 114.892 60.004 115.276 60.204C115.66 60.404 115.952 60.688 116.152 61.056C116.352 61.416 116.452 61.844 116.452 62.34V66H115.408L115.312 64.98C115.232 65.14 115.128 65.292 115 65.436C114.88 65.58 114.736 65.704 114.568 65.808C114.408 65.912 114.22 65.992 114.004 66.048C113.796 66.112 113.564 66.144 113.308 66.144ZM113.536 65.172C113.8 65.172 114.036 65.12 114.244 65.016C114.452 64.912 114.628 64.772 114.772 64.596C114.916 64.412 115.024 64.212 115.096 63.996C115.176 63.772 115.22 63.54 115.228 63.3V63.288H113.8C113.448 63.288 113.164 63.328 112.948 63.408C112.74 63.488 112.588 63.6 112.492 63.744C112.396 63.888 112.348 64.056 112.348 64.248C112.348 64.432 112.392 64.596 112.48 64.74C112.576 64.876 112.712 64.984 112.888 65.064C113.064 65.136 113.28 65.172 113.536 65.172ZM121.067 66V57.6H122.483L125.363 63.264L128.243 57.6H129.659V66H128.459V59.7L125.831 64.8H124.907L122.267 59.7V66H121.067ZM131.427 66V60.048H132.627V66H131.427ZM132.027 58.872C131.795 58.872 131.603 58.8 131.451 58.656C131.307 58.512 131.235 58.328 131.235 58.104C131.235 57.888 131.307 57.712 131.451 57.576C131.603 57.432 131.795 57.36 132.027 57.36C132.251 57.36 132.439 57.432 132.591 57.576C132.743 57.712 132.819 57.888 132.819 58.104C132.819 58.328 132.743 58.512 132.591 58.656C132.439 58.8 132.251 58.872 132.027 58.872ZM134.332 66V57.36H135.532V66H134.332ZM140.96 66L138.164 62.724L140.672 60.048H142.124L139.136 63.18L139.148 62.292L142.472 66H140.96ZM137.156 66V57.36H138.356V66H137.156ZM149.327 66.144C148.719 66.144 148.183 66.036 147.719 65.82C147.255 65.596 146.895 65.284 146.639 64.884C146.383 64.484 146.255 64.016 146.255 63.48H147.515C147.515 63.784 147.587 64.064 147.731 64.32C147.875 64.568 148.079 64.768 148.343 64.92C148.615 65.064 148.943 65.136 149.327 65.136C149.671 65.136 149.963 65.08 150.203 64.968C150.443 64.856 150.627 64.704 150.755 64.512C150.891 64.312 150.959 64.084 150.959 63.828C150.959 63.524 150.887 63.276 150.743 63.084C150.607 62.892 150.423 62.736 150.191 62.616C149.959 62.496 149.691 62.388 149.387 62.292C149.091 62.196 148.779 62.092 148.451 61.98C147.803 61.756 147.315 61.476 146.987 61.14C146.667 60.796 146.507 60.348 146.507 59.796C146.507 59.324 146.615 58.916 146.831 58.572C147.055 58.22 147.371 57.948 147.779 57.756C148.187 57.556 148.667 57.456 149.219 57.456C149.763 57.456 150.235 57.556 150.635 57.756C151.043 57.956 151.363 58.232 151.595 58.584C151.827 58.936 151.947 59.348 151.955 59.82H150.683C150.683 59.604 150.627 59.392 150.515 59.184C150.403 58.976 150.235 58.808 150.011 58.68C149.787 58.544 149.511 58.476 149.183 58.476C148.911 58.468 148.667 58.512 148.451 58.608C148.235 58.704 148.063 58.844 147.935 59.028C147.815 59.212 147.755 59.432 147.755 59.688C147.755 59.944 147.811 60.152 147.923 60.312C148.035 60.464 148.195 60.596 148.403 60.708C148.611 60.82 148.851 60.924 149.123 61.02C149.403 61.108 149.711 61.208 150.047 61.32C150.455 61.456 150.823 61.624 151.151 61.824C151.479 62.016 151.735 62.268 151.919 62.58C152.111 62.884 152.207 63.276 152.207 63.756C152.207 64.172 152.099 64.56 151.883 64.92C151.667 65.28 151.347 65.576 150.923 65.808C150.499 66.032 149.967 66.144 149.327 66.144ZM156.022 66C155.638 66 155.306 65.94 155.026 65.82C154.746 65.7 154.53 65.5 154.378 65.22C154.226 64.94 154.15 64.56 154.15 64.08V61.056H153.13V60.048H154.15L154.306 58.56H155.35V60.048H157.054V61.056H155.35V64.092C155.35 64.436 155.422 64.672 155.566 64.8C155.71 64.92 155.958 64.98 156.31 64.98H156.982V66H156.022ZM160.939 66.144C160.379 66.144 159.871 66.016 159.415 65.76C158.967 65.496 158.611 65.132 158.347 64.668C158.083 64.196 157.951 63.648 157.951 63.024C157.951 62.4 158.083 61.856 158.347 61.392C158.619 60.92 158.983 60.556 159.439 60.3C159.895 60.036 160.403 59.904 160.963 59.904C161.531 59.904 162.039 60.036 162.487 60.3C162.943 60.556 163.303 60.916 163.567 61.38C163.831 61.844 163.963 62.392 163.963 63.024C163.963 63.648 163.827 64.196 163.555 64.668C163.291 65.132 162.931 65.496 162.475 65.76C162.019 66.016 161.507 66.144 160.939 66.144ZM160.951 65.112C161.263 65.112 161.555 65.036 161.827 64.884C162.099 64.724 162.319 64.488 162.487 64.176C162.655 63.864 162.739 63.48 162.739 63.024C162.739 62.56 162.655 62.176 162.487 61.872C162.327 61.56 162.111 61.328 161.839 61.176C161.567 61.016 161.275 60.936 160.963 60.936C160.659 60.936 160.367 61.016 160.087 61.176C159.815 61.328 159.595 61.56 159.427 61.872C159.267 62.176 159.187 62.56 159.187 63.024C159.187 63.48 159.267 63.864 159.427 64.176C159.595 64.488 159.811 64.724 160.075 64.884C160.347 65.036 160.639 65.112 160.951 65.112ZM168.651 66.144C168.331 66.144 168.039 66.1 167.775 66.012C167.511 65.924 167.275 65.804 167.067 65.652C166.859 65.492 166.687 65.3 166.551 65.076L166.431 66H165.351V57.36H166.551V60.984C166.743 60.704 167.007 60.456 167.343 60.24C167.687 60.016 168.127 59.904 168.663 59.904C169.247 59.904 169.755 60.04 170.187 60.312C170.627 60.584 170.971 60.956 171.219 61.428C171.467 61.9 171.591 62.436 171.591 63.036C171.591 63.636 171.467 64.172 171.219 64.644C170.971 65.108 170.627 65.476 170.187 65.748C169.747 66.012 169.235 66.144 168.651 66.144ZM168.459 65.1C168.835 65.1 169.167 65.012 169.455 64.836C169.743 64.66 169.967 64.42 170.127 64.116C170.295 63.804 170.379 63.44 170.379 63.024C170.379 62.616 170.295 62.256 170.127 61.944C169.967 61.632 169.743 61.388 169.455 61.212C169.167 61.036 168.835 60.948 168.459 60.948C168.091 60.948 167.759 61.036 167.463 61.212C167.175 61.388 166.951 61.632 166.791 61.944C166.631 62.256 166.551 62.616 166.551 63.024C166.551 63.432 166.631 63.792 166.791 64.104C166.951 64.416 167.175 64.66 167.463 64.836C167.759 65.012 168.091 65.1 168.459 65.1ZM175.74 66.144C175.156 66.144 174.64 66.016 174.192 65.76C173.744 65.496 173.392 65.132 173.136 64.668C172.88 64.204 172.752 63.66 172.752 63.036C172.752 62.412 172.876 61.868 173.124 61.404C173.38 60.932 173.732 60.564 174.18 60.3C174.636 60.036 175.164 59.904 175.764 59.904C176.348 59.904 176.852 60.036 177.276 60.3C177.708 60.556 178.04 60.896 178.272 61.32C178.504 61.744 178.62 62.216 178.62 62.736C178.62 62.816 178.62 62.904 178.62 63C178.62 63.096 178.616 63.196 178.608 63.3H173.64V62.46H177.42C177.396 61.98 177.228 61.6 176.916 61.32C176.604 61.04 176.212 60.9 175.74 60.9C175.42 60.9 175.12 60.972 174.84 61.116C174.568 61.26 174.348 61.472 174.18 61.752C174.012 62.024 173.928 62.372 173.928 62.796V63.132C173.928 63.572 174.012 63.94 174.18 64.236C174.348 64.532 174.568 64.76 174.84 64.92C175.12 65.072 175.42 65.148 175.74 65.148C176.116 65.148 176.432 65.06 176.688 64.884C176.944 64.708 177.132 64.476 177.252 64.188H178.452C178.348 64.564 178.172 64.9 177.924 65.196C177.676 65.484 177.368 65.716 177 65.892C176.632 66.06 176.212 66.144 175.74 66.144ZM179.941 66V60.048H181.021L181.117 61.188C181.253 60.924 181.425 60.696 181.633 60.504C181.841 60.312 182.085 60.164 182.365 60.06C182.653 59.956 182.977 59.904 183.337 59.904V61.164H183.001C182.745 61.164 182.501 61.196 182.269 61.26C182.045 61.324 181.845 61.428 181.669 61.572C181.501 61.716 181.369 61.916 181.273 62.172C181.185 62.42 181.141 62.732 181.141 63.108V66H179.941ZM184.525 66V60.048H185.725V66H184.525ZM185.125 58.872C184.893 58.872 184.701 58.8 184.549 58.656C184.405 58.512 184.333 58.328 184.333 58.104C184.333 57.888 184.405 57.712 184.549 57.576C184.701 57.432 184.893 57.36 185.125 57.36C185.349 57.36 185.537 57.432 185.689 57.576C185.841 57.712 185.917 57.888 185.917 58.104C185.917 58.328 185.841 58.512 185.689 58.656C185.537 58.8 185.349 58.872 185.125 58.872Z" fill="black"/>
<path d="M242.728 66V58.956L241.348 59.268V58.392L243.172 57.6H243.952V66H242.728Z" fill="black"/>
<path d="M288.343 66V57.6H291.187C291.851 57.6 292.395 57.712 292.819 57.936C293.243 58.16 293.555 58.46 293.755 58.836C293.963 59.204 294.067 59.624 294.067 60.096C294.067 60.544 293.963 60.96 293.755 61.344C293.555 61.72 293.239 62.024 292.807 62.256C292.375 62.48 291.823 62.592 291.151 62.592H289.543V66H288.343ZM292.759 66L290.947 62.268H292.267L294.151 66H292.759ZM289.543 61.68H291.103C291.695 61.68 292.131 61.536 292.411 61.248C292.691 60.952 292.831 60.576 292.831 60.12C292.831 59.656 292.695 59.288 292.423 59.016C292.151 58.744 291.707 58.608 291.091 58.608H289.543V61.68ZM295.537 68.64V60.048H296.617L296.737 60.984C296.865 60.8 297.025 60.624 297.217 60.456C297.409 60.288 297.637 60.156 297.901 60.06C298.173 59.956 298.489 59.904 298.849 59.904C299.433 59.904 299.941 60.04 300.373 60.312C300.813 60.584 301.157 60.956 301.405 61.428C301.653 61.9 301.777 62.436 301.777 63.036C301.777 63.636 301.653 64.172 301.405 64.644C301.157 65.108 300.813 65.476 300.373 65.748C299.933 66.012 299.421 66.144 298.837 66.144C298.365 66.144 297.949 66.052 297.589 65.868C297.229 65.676 296.945 65.412 296.737 65.076V68.64H295.537ZM298.645 65.1C299.021 65.1 299.353 65.012 299.641 64.836C299.929 64.66 300.153 64.42 300.313 64.116C300.481 63.804 300.565 63.44 300.565 63.024C300.565 62.616 300.481 62.256 300.313 61.944C300.153 61.632 299.929 61.388 299.641 61.212C299.353 61.036 299.021 60.948 298.645 60.948C298.277 60.948 297.945 61.036 297.649 61.212C297.361 61.388 297.137 61.632 296.977 61.944C296.817 62.256 296.737 62.616 296.737 63.024C296.737 63.432 296.817 63.792 296.977 64.104C297.137 64.416 297.361 64.66 297.649 64.836C297.945 65.012 298.277 65.1 298.645 65.1ZM309.116 66.144C308.556 66.144 308.052 66.044 307.604 65.844C307.164 65.636 306.812 65.348 306.548 64.98C306.284 64.612 306.152 64.184 306.152 63.696C306.152 63.352 306.216 63.036 306.344 62.748C306.48 62.452 306.664 62.196 306.896 61.98C307.136 61.764 307.416 61.608 307.736 61.512C307.304 61.344 306.968 61.096 306.728 60.768C306.488 60.44 306.368 60.08 306.368 59.688C306.368 59.28 306.476 58.908 306.692 58.572C306.908 58.236 307.22 57.968 307.628 57.768C308.044 57.56 308.54 57.456 309.116 57.456C309.7 57.456 310.196 57.56 310.604 57.768C311.02 57.968 311.336 58.236 311.552 58.572C311.768 58.908 311.876 59.28 311.876 59.688C311.876 60.08 311.752 60.444 311.504 60.78C311.264 61.108 310.932 61.352 310.508 61.512C310.836 61.608 311.116 61.764 311.348 61.98C311.58 62.196 311.76 62.452 311.888 62.748C312.024 63.036 312.092 63.352 312.092 63.696C312.092 64.184 311.96 64.612 311.696 64.98C311.432 65.348 311.076 65.636 310.628 65.844C310.188 66.044 309.684 66.144 309.116 66.144ZM309.116 65.112C309.716 65.112 310.16 64.976 310.448 64.704C310.744 64.424 310.892 64.06 310.892 63.612C310.892 63.108 310.732 62.724 310.412 62.46C310.092 62.196 309.66 62.064 309.116 62.064C308.58 62.064 308.148 62.196 307.82 62.46C307.5 62.724 307.34 63.108 307.34 63.612C307.34 64.06 307.488 64.424 307.784 64.704C308.088 64.976 308.532 65.112 309.116 65.112ZM309.116 61.116C309.596 61.116 309.976 60.992 310.256 60.744C310.536 60.496 310.676 60.18 310.676 59.796C310.676 59.356 310.536 59.024 310.256 58.8C309.984 58.576 309.604 58.464 309.116 58.464C308.644 58.464 308.268 58.576 307.988 58.8C307.716 59.024 307.58 59.356 307.58 59.796C307.58 60.18 307.716 60.496 307.988 60.744C308.268 60.992 308.644 61.116 309.116 61.116ZM314.098 66.06C313.866 66.06 313.674 65.988 313.522 65.844C313.378 65.692 313.306 65.512 313.306 65.304C313.306 65.088 313.378 64.908 313.522 64.764C313.674 64.612 313.866 64.536 314.098 64.536C314.33 64.536 314.518 64.612 314.662 64.764C314.806 64.908 314.878 65.088 314.878 65.304C314.878 65.512 314.806 65.692 314.662 65.844C314.518 65.988 314.33 66.06 314.098 66.06ZM319.125 66.144C318.541 66.144 318.033 66.036 317.601 65.82C317.169 65.604 316.829 65.312 316.581 64.944C316.333 64.576 316.181 64.16 316.125 63.696H317.289C317.377 64.12 317.585 64.464 317.913 64.728C318.241 64.992 318.649 65.124 319.137 65.124C319.505 65.124 319.821 65.036 320.085 64.86C320.349 64.684 320.553 64.448 320.697 64.152C320.849 63.848 320.925 63.516 320.925 63.156C320.925 62.764 320.849 62.424 320.697 62.136C320.545 61.848 320.337 61.624 320.073 61.464C319.817 61.304 319.517 61.224 319.173 61.224C318.741 61.224 318.373 61.324 318.069 61.524C317.765 61.716 317.545 61.968 317.409 62.28H316.269L316.989 57.6H321.477V58.644H317.901L317.445 60.984C317.637 60.76 317.893 60.58 318.213 60.444C318.541 60.3 318.913 60.228 319.329 60.228C319.761 60.228 320.145 60.304 320.481 60.456C320.817 60.608 321.105 60.816 321.345 61.08C321.585 61.344 321.765 61.652 321.885 62.004C322.013 62.356 322.077 62.736 322.077 63.144C322.077 63.56 322.009 63.952 321.873 64.32C321.745 64.68 321.549 65 321.285 65.28C321.029 65.552 320.721 65.764 320.361 65.916C320.001 66.068 319.589 66.144 319.125 66.144ZM326.94 66.144C326.188 66.144 325.536 65.964 324.984 65.604C324.44 65.236 324.02 64.728 323.724 64.08C323.436 63.424 323.292 62.664 323.292 61.8C323.292 60.936 323.436 60.18 323.724 59.532C324.02 58.876 324.44 58.368 324.984 58.008C325.528 57.64 326.18 57.456 326.94 57.456C327.7 57.456 328.348 57.64 328.884 58.008C329.428 58.368 329.844 58.876 330.132 59.532C330.428 60.18 330.576 60.936 330.576 61.8C330.576 62.664 330.428 63.424 330.132 64.08C329.844 64.728 329.428 65.236 328.884 65.604C328.348 65.964 327.7 66.144 326.94 66.144ZM326.94 65.076C327.404 65.076 327.816 64.944 328.176 64.68C328.544 64.416 328.832 64.04 329.04 63.552C329.248 63.064 329.352 62.48 329.352 61.8C329.352 61.12 329.248 60.536 329.04 60.048C328.832 59.56 328.544 59.188 328.176 58.932C327.816 58.668 327.404 58.536 326.94 58.536C326.468 58.536 326.048 58.668 325.68 58.932C325.32 59.188 325.036 59.56 324.828 60.048C324.62 60.536 324.516 61.12 324.516 61.8C324.516 62.48 324.62 63.064 324.828 63.552C325.036 64.04 325.32 64.416 325.68 64.68C326.048 64.944 326.468 65.076 326.94 65.076ZM335.331 66.144C334.579 66.144 333.927 65.964 333.375 65.604C332.831 65.236 332.411 64.728 332.115 64.08C331.827 63.424 331.683 62.664 331.683 61.8C331.683 60.936 331.827 60.18 332.115 59.532C332.411 58.876 332.831 58.368 333.375 58.008C333.919 57.64 334.571 57.456 335.331 57.456C336.091 57.456 336.739 57.64 337.275 58.008C337.819 58.368 338.235 58.876 338.523 59.532C338.819 60.18 338.967 60.936 338.967 61.8C338.967 62.664 338.819 63.424 338.523 64.08C338.235 64.728 337.819 65.236 337.275 65.604C336.739 65.964 336.091 66.144 335.331 66.144ZM335.331 65.076C335.795 65.076 336.207 64.944 336.567 64.68C336.935 64.416 337.223 64.04 337.431 63.552C337.639 63.064 337.743 62.48 337.743 61.8C337.743 61.12 337.639 60.536 337.431 60.048C337.223 59.56 336.935 59.188 336.567 58.932C336.207 58.668 335.795 58.536 335.331 58.536C334.859 58.536 334.439 58.668 334.071 58.932C333.711 59.188 333.427 59.56 333.219 60.048C333.011 60.536 332.907 61.12 332.907 61.8C332.907 62.48 333.011 63.064 333.219 63.552C333.427 64.04 333.711 64.416 334.071 64.68C334.439 64.944 334.859 65.076 335.331 65.076Z" fill="black"/>
</svg>
