<svg width="82" height="80" viewBox="0 0 82 80" fill="none" xmlns="http://www.w3.org/2000/svg">
<path d="M80 40C80 47.9113 77.654 55.6448 73.2588 62.2228C68.8635 68.8008 62.6164 73.9277 55.3073 76.9552C47.9983 79.9827 39.9556 80.7748 32.1964 79.2314C24.4371 77.688 17.3098 73.8784 11.7157 68.2843C6.12163 62.6902 2.312 55.5629 0.768589 47.8036C-0.77482 40.0444 0.0173134 32.0017 3.04482 24.6927C6.07232 17.3836 11.1992 11.1365 17.7772 6.74122C24.3552 2.34596 32.0887 -9.43407e-08 40 0V22C36.4399 22 32.9598 23.0557 29.9997 25.0335C27.0397 27.0114 24.7325 29.8226 23.3702 33.1117C22.0078 36.4008 21.6513 40.02 22.3459 43.5116C23.0404 47.0033 24.7547 50.2106 27.2721 52.7279C29.7894 55.2453 32.9967 56.9596 36.4884 57.6541C39.98 58.3487 43.5992 57.9922 46.8883 56.6298C50.1774 55.2675 52.9886 52.9604 54.9665 50.0003C56.9443 47.0402 58 43.5601 58 40H80Z" fill="#FF6000"/>
<g filter="url(#filter0_d_60_3)">
<path d="M40 0C45.2529 6.26399e-08 50.4543 1.03463 55.3073 3.04482C60.1604 5.05501 64.5699 8.00139 68.2843 11.7157C71.9986 15.4301 74.945 19.8396 76.9552 24.6927C78.9654 29.5457 80 34.7471 80 40L58 40C58 37.6362 57.5344 35.2956 56.6298 33.1117C55.7252 30.9278 54.3994 28.9435 52.7279 27.2721C51.0565 25.6006 49.0722 24.2748 46.8883 23.3702C44.7044 22.4656 42.3638 22 40 22V0Z" fill="#FABE78"/>
</g>
<defs>
<filter id="filter0_d_60_3" x="38" y="0" width="44" height="44" filterUnits="userSpaceOnUse" color-interpolation-filters="sRGB">
<feFlood flood-opacity="0" result="BackgroundImageFix"/>
<feColorMatrix in="SourceAlpha" type="matrix" values="0 0 0 0 0 0 0 0 0 0 0 0 0 0 0 0 0 0 127 0" result="hardAlpha"/>
<feOffset dy="2"/>
<feGaussianBlur stdDeviation="1"/>
<feComposite in2="hardAlpha" operator="out"/>
<feColorMatrix type="matrix" values="0 0 0 0 0 0 0 0 0 0 0 0 0 0 0 0 0 0 0.25 0"/>
<feBlend mode="normal" in2="BackgroundImageFix" result="effect1_dropShadow_60_3"/>
<feBlend mode="normal" in="SourceGraphic" in2="effect1_dropShadow_60_3" result="shape"/>
</filter>
</defs>
</svg>
